<?xml version="1.0" encoding="UTF-8"?>
<!-- Generator: Adobe Illustrator 16.0.0, SVG Export Plug-In . SVG Version: 6.00 Build 0)  -->
<!DOCTYPE svg PUBLIC "-//W3C//DTD SVG 1.1//EN" "http://www.w3.org/Graphics/SVG/1.1/DTD/svg11.dtd">
<svg version="1.1" id="Layer_1" xmlns="http://www.w3.org/2000/svg" xmlns:xlink="http://www.w3.org/1999/xlink" x="0px" y="0px" width="98px" height="64px" viewBox="0 0 98 64" enable-background="new 0 0 98 64" xml:space="preserve">
<path fill="#ED1C24" d="M90.012,12.689c-0.436-1.034-1.04-1.957-1.795-2.743c-0.758-0.79-1.641-1.422-2.625-1.88  c-1.068-0.498-2.215-0.75-3.406-0.75h-6.748c-1.346,0-2.625,0.479-3.609,1.352c-0.281,0.25-0.531,0.527-0.747,0.826  c-0.087-0.115-0.173-0.22-0.253-0.318c-1.065-1.28-2.524-1.985-4.11-1.985c-1.335,0-2.593,0.494-3.528,1.376  c-0.104,0.09-1.236,1.098-2.076,1.846c-0.28-0.604-0.674-1.153-1.166-1.619c-1.005-0.953-2.313-1.478-3.683-1.478l-0.167,0.001  c-0.127-0.002-0.26-0.002-0.399-0.002C54.256,7.315,52.91,7.87,51.91,8.876c-0.17,0.171-0.328,0.353-0.473,0.544  c-0.23-0.303-0.497-0.582-0.797-0.832c-0.988-0.833-2.211-1.273-3.539-1.274l-7.93-0.001c-1.396,0.001-2.683,0.292-3.824,0.866  c-1.007,0.508-1.881,1.157-2.597,1.932c-0.021,0.022-0.042,0.045-0.062,0.067c-0.139-0.151-0.284-0.298-0.433-0.44  c-0.804-0.759-1.736-1.356-2.769-1.777c-1.059-0.43-2.175-0.647-3.32-0.647l-6.312-0.001c-1.143,0.001-2.261,0.219-3.323,0.649  c-1.057,0.432-1.998,1.044-2.794,1.822c-0.771,0.751-1.398,1.634-1.866,2.625c-0.519,1.102-0.782,2.29-0.782,3.53l0,10.122  c0,1.184,0.234,2.336,0.695,3.424c0.438,1.03,1.042,1.951,1.798,2.739c0.756,0.787,1.64,1.418,2.625,1.877  c1.069,0.496,2.213,0.748,3.401,0.748l6.754,0.001c1.347-0.003,2.626-0.481,3.6-1.349c0.444-0.396,0.81-0.854,1.089-1.359  c0.28,0.508,0.648,0.969,1.096,1.367c0.991,0.877,2.236,1.341,3.6,1.341l9.938,0.002c2.24,0,4.202-0.751,5.7-2.173  c0.158,0.217,0.334,0.422,0.526,0.615c1.005,1.004,2.347,1.558,3.778,1.558l0.584,0.001c1.365-0.006,2.672-0.533,3.68-1.485  c0.553-0.526,0.978-1.151,1.26-1.842l2.324,2.031l0.176,0.113c0.032,0.023,0.063,0.045,0.082,0.061  c0.951,0.736,1.977,1.11,3.052,1.11c0.537,0,1.081-0.083,1.622-0.25c0.607-0.19,1.166-0.481,1.662-0.866l0.081-0.064  c0.193-0.164,0.325-0.276,0.415-0.354c0.521,0.355,1.082,0.656,1.676,0.898c1.057,0.43,2.172,0.648,3.32,0.648l6.316,0.002  c1.145-0.002,2.261-0.221,3.319-0.649c1.056-0.431,1.997-1.044,2.798-1.824c0.768-0.75,1.395-1.634,1.863-2.624  c0.519-1.099,0.781-2.287,0.783-3.531V16.104C90.706,14.915,90.472,13.764,90.012,12.689z M90.022,26.227  c-0.001,1.143-0.242,2.23-0.717,3.236c-0.433,0.917-1.013,1.731-1.722,2.424c-0.737,0.718-1.604,1.282-2.578,1.681  c-0.979,0.396-2.007,0.597-3.064,0.599l-6.314-0.001c-1.061-0.001-2.091-0.203-3.064-0.6c-0.717-0.292-1.378-0.675-1.975-1.141  c-0.051,0.049-0.104,0.099-0.157,0.148l-0.071,0.062c0,0.002-0.586,0.5-0.586,0.5l-0.058,0.045  c-0.431,0.334-0.917,0.588-1.446,0.754c-0.48,0.147-0.951,0.219-1.42,0.219c-0.925,0-1.808-0.326-2.635-0.968  c-0.029-0.022-0.066-0.049-0.107-0.078l-0.157-0.103l-3.092-2.701c-0.171,0.979-0.645,1.87-1.374,2.566  c-0.882,0.834-2.02,1.291-3.212,1.297l-0.581-0.002c-1.248,0-2.422-0.482-3.297-1.357c-0.369-0.371-0.668-0.794-0.891-1.254  c-0.095,0.114-0.193,0.224-0.295,0.333c-1.4,1.488-3.312,2.278-5.522,2.278l-9.938-0.001c-1.196,0-2.284-0.405-3.149-1.171  c-0.979-0.868-1.517-2.092-1.517-3.446v-0.28h-0.062l-0.001,0.286c0,1.346-0.536,2.569-1.51,3.436  c-0.85,0.756-1.967,1.173-3.148,1.175l-6.753-0.001c-1.089,0-2.137-0.23-3.115-0.685c-0.911-0.424-1.724-1.005-2.421-1.73  c-0.698-0.729-1.255-1.579-1.66-2.532c-0.425-1.001-0.641-2.063-0.641-3.153l0.001-10.122c0-1.138,0.241-2.226,0.717-3.235  c0.433-0.917,1.013-1.733,1.724-2.427c0.734-0.716,1.601-1.28,2.576-1.679C17.771,8.201,18.8,8.001,19.856,8l6.312,0.001  c1.056,0,2.087,0.201,3.063,0.598c0.955,0.388,1.815,0.94,2.558,1.642c0.331,0.313,0.631,0.649,0.901,1.008  c0.173-0.23,0.36-0.453,0.56-0.667c0.659-0.713,1.47-1.316,2.404-1.787c1.046-0.526,2.229-0.793,3.519-0.793h7.93  c1.166,0.002,2.237,0.387,3.102,1.115c0.543,0.455,0.959,1.016,1.23,1.651c0.229-0.52,0.552-0.994,0.959-1.403  c0.871-0.876,2.045-1.36,3.305-1.361c0.203,0,0.391,0,0.566,0.007V8.004c1.195,0,2.338,0.458,3.215,1.291  c0.668,0.633,1.121,1.431,1.326,2.311c0.586-0.521,2.693-2.397,2.834-2.522c0.824-0.777,1.916-1.205,3.078-1.205  c1.382,0,2.653,0.618,3.586,1.74c0.094,0.115,0.201,0.247,0.309,0.395l0.006-0.005c0.202,0.234,0.379,0.485,0.529,0.749  c0.256-0.597,0.639-1.131,1.134-1.574c0.858-0.762,1.978-1.178,3.155-1.178h6.748c1.092,0,2.143,0.231,3.12,0.687  c0.905,0.421,1.721,1.004,2.419,1.733c0.697,0.724,1.256,1.578,1.658,2.534c0.424,0.988,0.64,2.051,0.64,3.146V26.227z"/>
<path fill="#ED1C24" d="M29.972,11.811c-0.5-0.472-1.083-0.847-1.735-1.112c-0.658-0.268-1.355-0.404-2.069-0.404h-6.311  c-0.713,0-1.41,0.135-2.069,0.402c-0.657,0.269-1.237,0.645-1.725,1.122c-0.482,0.471-0.876,1.026-1.171,1.651  c-0.305,0.646-0.46,1.349-0.46,2.087L14.43,25.678c0,0.727,0.144,1.435,0.426,2.1c0.278,0.655,0.657,1.233,1.125,1.722  c0.47,0.488,1.016,0.879,1.625,1.163c0.628,0.292,1.302,0.438,2.003,0.438l6.748,0.001c0.539-0.001,1.022-0.174,1.393-0.504  c0.401-0.357,0.613-0.852,0.613-1.437l0.001-0.444c0-0.582-0.212-1.077-0.611-1.434c-0.379-0.334-0.847-0.505-1.395-0.506H20.82  c-0.653,0-1.121-0.142-1.389-0.421c-0.28-0.292-0.416-0.698-0.417-1.241c0,0,0.001-1.441,0.001-2.389h9.444  c0.803-0.001,1.519-0.251,2.129-0.746c0.666-0.534,1.004-1.374,1.004-2.491v-3.93c0.001-0.731-0.144-1.428-0.432-2.073  C30.876,12.851,30.477,12.289,29.972,11.811z M27.008,18.589l-7.994-0.001v-2.59c-0.001-0.402,0.126-0.713,0.398-0.979  c0.279-0.272,0.586-0.4,0.969-0.399h5.261c0.381,0,0.688,0.127,0.969,0.399c0.271,0.266,0.397,0.576,0.398,0.98  C27.009,16,27.009,17.585,27.008,18.589z"/>
<path fill="#ED1C24" d="M85.814,11.902c-0.469-0.488-1.015-0.88-1.624-1.163c-0.628-0.292-1.3-0.439-2.005-0.439  c-0.001,0-6.748,0-6.748,0c-0.537,0-1.02,0.173-1.393,0.503c-0.401,0.359-0.613,0.855-0.613,1.437c0-0.002,0,0.444,0,0.444  c0.001,0.585,0.213,1.081,0.612,1.436c0.378,0.335,0.847,0.505,1.395,0.505c-0.001,0,5.536,0.001,5.536,0.001  c0.653,0,1.123,0.142,1.391,0.421c0.281,0.291,0.417,0.697,0.417,1.24c0,0-0.001,1.443-0.001,2.391h-9.445  c-0.801,0-1.517,0.25-2.131,0.745c-0.664,0.535-1.002,1.374-1.002,2.493v3.929c0,0.732,0.145,1.43,0.433,2.073  c0.284,0.635,0.685,1.198,1.188,1.674c0.501,0.473,1.083,0.847,1.734,1.112c0.658,0.268,1.354,0.404,2.068,0.404  c0.001,0,6.312,0.001,6.312,0.001c0.715-0.001,1.412-0.136,2.069-0.402c0.657-0.269,1.237-0.645,1.727-1.122  c0.481-0.469,0.876-1.025,1.171-1.65c0.305-0.645,0.459-1.347,0.461-2.087V15.722c0-0.729-0.145-1.436-0.428-2.099  C86.662,12.971,86.283,12.392,85.814,11.902z M82.781,25.404c0,0.402-0.127,0.712-0.398,0.979c-0.278,0.272-0.588,0.399-0.968,0.398  h-5.261c-0.383,0-0.69-0.127-0.97-0.4c-0.271-0.265-0.397-0.576-0.397-0.979c0,0.001,0-1.584,0-2.589l7.995,0.001L82.781,25.404z"/>
<path fill="#ED1C24" d="M49.26,19.69c-0.871-0.73-1.882-1.099-3.008-1.099l-6.477-0.001c-0.714,0-0.958-0.289-1.037-0.382  c-0.25-0.297-0.371-0.57-0.371-0.833v-1.498c0-0.526,0.192-0.774,0.336-0.916c0.234-0.225,0.622-0.339,1.155-0.339h7.284  c0.511,0,0.968-0.165,1.354-0.488c0.429-0.359,0.654-0.861,0.654-1.452v-0.444c-0.001-0.592-0.227-1.095-0.651-1.451  c-0.387-0.325-0.857-0.491-1.398-0.491l-7.929-0.001c-0.874,0-1.658,0.173-2.331,0.511c-0.648,0.327-1.206,0.739-1.655,1.225  c-0.455,0.488-0.806,1.034-1.043,1.624c-0.239,0.594-0.361,1.153-0.361,1.662v2.511c0,0.708,0.138,1.377,0.411,1.991  c0.272,0.609,0.629,1.129,1.061,1.549c0.434,0.42,0.945,0.754,1.516,0.995c0.577,0.241,1.169,0.365,1.755,0.365l6.597,0.001  c0.302,0,0.44,0.053,0.485,0.076c0.107,0.054,0.188,0.118,0.247,0.196c0.069,0.09,0.115,0.183,0.141,0.28  c0.037,0.137,0.055,0.264,0.054,0.379c0,0.002,0,1.62,0,1.62c0,0.164-0.022,0.354-0.064,0.572c-0.036,0.183-0.097,0.345-0.186,0.496  c-0.082,0.138-0.183,0.252-0.313,0.35c-0.07,0.054-0.2,0.083-0.363,0.083c-0.001,0-9.374-0.001-9.374-0.001  c-0.541,0-1.024,0.175-1.397,0.507c-0.4,0.353-0.612,0.849-0.612,1.431v0.446c0,0.583,0.212,1.08,0.614,1.436  c0.378,0.335,0.849,0.505,1.395,0.504l9.938,0.002c1.483,0,2.694-0.487,3.598-1.449c0.896-0.948,1.349-2.259,1.349-3.898v-2.714  C50.633,21.583,50.171,20.455,49.26,19.69z"/>
<path fill="#ED1C24" d="M68.85,27.312c-0.027-0.025-5.776-4.933-7.789-6.7l7.238-6.434c0.65-0.557,0.793-1.166,0.794-1.576  c0-0.437-0.167-0.857-0.479-1.22c0.017,0.019-0.346-0.427-0.346-0.427c-0.539-0.647-1.137-0.783-1.547-0.782  c-0.498-0.001-0.941,0.17-1.278,0.495c0.019-0.017-4.771,4.246-7.169,6.378V12.32c0-0.574-0.213-1.078-0.613-1.458  c-0.391-0.369-0.873-0.563-1.395-0.563c-0.002,0-0.564-0.001-0.564-0.001c-0.559,0.001-1.055,0.201-1.432,0.58  c-0.378,0.379-0.578,0.877-0.579,1.441c0,0.001,0,16.763,0,16.763c-0.001,0.563,0.198,1.061,0.575,1.442  c0.381,0.379,0.873,0.581,1.432,0.581l0.565,0.001c0.526-0.003,1.007-0.197,1.396-0.565c0.402-0.382,0.614-0.887,0.614-1.459  c0,0.001,0-3.011,0.001-4.965l7.236,6.325l0.037,0.032l0.039,0.025c0.086,0.061,0.168,0.119,0.25,0.183  c0.36,0.28,0.684,0.413,1.008,0.412c0.205,0,0.42-0.032,0.633-0.097c0.229-0.072,0.435-0.178,0.618-0.32  c0.027-0.025,0.552-0.469,0.552-0.469c0.482-0.44,0.727-0.971,0.725-1.548c0-0.314-0.06-0.598-0.186-0.851  C69.071,27.581,68.969,27.428,68.85,27.312z"/>
<path fill="#FFFFFF" d="M17.159,53.332v6.823h-5.91V40.339h9.484c2.719,0,4.78,0.503,6.183,1.51s2.104,2.482,2.104,4.428  c0,2.313-1.101,3.938-3.301,4.878c1.095,0.406,1.881,1.102,2.356,2.084c0.476,0.981,0.713,2.393,0.713,4.23  c0,1.162,0.173,2.058,0.519,2.687h-6.14c-0.163-0.61-0.245-1.138-0.245-1.583l-0.029-0.943c0-1.539-0.254-2.64-0.764-3.303  c-0.509-0.662-1.35-0.994-2.522-0.994H17.159z M17.159,45.202v3.847h3.373h0.332c1.432,0,2.148-0.668,2.148-2.004  c0-0.678-0.185-1.154-0.555-1.43c-0.37-0.275-1.007-0.414-1.91-0.414L17.159,45.202L17.159,45.202z"/>
<path fill="#FFFFFF" d="M39.811,39.889c3.026,0,5.451,0.943,7.271,2.83c1.821,1.889,2.73,4.395,2.73,7.521  c0,3.136-0.91,5.647-2.73,7.534c-1.82,1.888-4.245,2.832-7.271,2.832c-3.056,0-5.487-0.951-7.293-2.854  c-1.807-1.901-2.71-4.459-2.71-7.672c0-3.049,0.92-5.51,2.76-7.383C34.408,40.825,36.823,39.889,39.811,39.889z M39.811,44.795  c-1.201,0-2.167,0.496-2.897,1.488c-0.73,0.992-1.096,2.311-1.096,3.956c0,1.655,0.365,2.979,1.096,3.971  c0.73,0.992,1.695,1.488,2.897,1.488c1.21,0,2.181-0.496,2.912-1.488c0.73-0.992,1.095-2.315,1.095-3.971  c0-1.646-0.365-2.964-1.095-3.956C41.992,45.291,41.021,44.795,39.811,44.795z"/>
<path fill="#FFFFFF" d="M69.598,52.635c-0.299,2.449-1.257,4.39-2.876,5.822c-1.619,1.432-3.673,2.147-6.161,2.147  c-2.902,0-5.285-0.978-7.149-2.933s-2.797-4.457-2.797-7.505c0-2.962,0.913-5.417,2.739-7.368c1.825-1.95,4.121-2.925,6.889-2.925  c2.518,0,4.632,0.729,6.342,2.185c1.711,1.457,2.652,3.337,2.826,5.641h-5.766c-0.125-0.93-0.471-1.646-1.038-2.148  c-0.567-0.504-1.307-0.755-2.22-0.755c-1.152,0-2.068,0.506-2.745,1.517c-0.677,1.012-1.017,2.383-1.017,4.115  c0,1.617,0.354,2.899,1.06,3.848c0.707,0.949,1.66,1.422,2.861,1.422c1.835,0,2.868-1.02,3.099-3.063H69.598L69.598,52.635z"/>
<path fill="#FFFFFF" d="M76.596,54.231v5.924h-5.895V40.339h5.895v6.373l5.852-6.373h7.495l-7.495,7.868l8.244,11.948h-7.408  l-4.886-7.839L76.596,54.231z"/>
</svg>