<svg xmlns="http://www.w3.org/2000/svg" xmlns:xlink="http://www.w3.org/1999/xlink" viewBox="0 0 652.86 250.04"><defs><style>.cls-1{fill:none;}.cls-2{clip-path:url(#clip-path);}.cls-3,.cls-5{fill:#fff;}.cls-4{fill:#ffcc03;}.cls-5{fill-rule:evenodd;}</style><clipPath id="clip-path" transform="translate(-49.79 -4.61)"><rect class="cls-1" width="746.99" height="225.05"/></clipPath></defs><g id="Warstwa_2" data-name="Warstwa 2"><g id="Warstwa_1-2" data-name="Warstwa 1"><g id="mazowsze"><g id="mazowsze-2" data-name="mazowsze"><g id="logotyp"><g id="rekord"><g class="cls-2"><path class="cls-3" d="M604.36,134.85a34.47,34.47,0,1,1,34.46,34.37,34.15,34.15,0,0,1-34.46-34.37m70.16,59.46,28.14-2.73V36.44L672.87,40V86.59a56.09,56.09,0,0,0-35.4-12c-34,0-58.88,28.8-58.88,60.31s24.86,60.34,58.88,60.34c16.41,0,24.62-4.06,37-15.9v15Zm-129-118.88-28.15,2.68V193.4l29.79-1.81V137.07c0-19.66,10.08-32.37,32.82-32.37l10.32-30.16c-20.63.22-34,3.79-44.33,21.44h-.45V75.43Zm-298.12,118,29.78-1.81V133.72h.48l50.17,59.68,29.56-8.51-46.91-52.73v-2.45L355.32,83l-26.5-11.39-51.6,58.07V36.44L247.44,40V193.4ZM145.32,137.76a42.54,42.54,0,0,1-.47-7.6,35.63,35.63,0,0,1,35.43-31.94c8,0,15.23,2,20.85,7.36Zm73.87,18.07c-12.43,7.82-23.69,13.39-38.92,13.39-14.31,0-20.88-6.68-23.23-11.37l81.61-48.27a63.49,63.49,0,0,0-56.76-35c-35.16,0-66.12,26.12-66.12,60.31s31,60.34,66.12,60.34a91.88,91.88,0,0,0,50-15Zm-141-80.4L50,78.11V193.4l29.78-1.81V137.07c0-19.66,10.07-32.37,32.83-32.37L123,74.54c-20.64.22-34,3.79-44.32,21.44h-.48V75.43Z" transform="translate(-49.79 -4.61)"/></g></g><g id="sloneczko"><path class="cls-4" d="M478.17,137.86l1.77-2.68c.21-2.25,3.59-6.22,2.05-8.93-4.52-5.53-5.91-12.77-7.93-19.76-4.31-10.63-17.08-17.76-29-18-5.13.4-10.94,1.88-13.19,6.52-8.79,1.21-17.11,3.89-23.38,9.88-9.85,9.09-9.26,24.23-4.73,36,2.89,10.21,13,19.66,24.55,21C449.29,164.35,466.24,153,478.17,137.86ZM418,126.54c.54-2.5-.32-6,1.68-8.08,5.3-8.37,17.37-6.44,24.49-12.07,1-1.06.85-2.49,1.55-3.57,11.91.48,11.5,13.83,17.05,21.16,1.28,5.24-2.37,8.9-6.28,12.25-6.87,5.94-15.34,13.16-25.14,9.44C422.63,143.47,419,134.61,418,126.54Z" transform="translate(-49.79 -4.61)"/><path class="cls-4" d="M387.16,147.09c-8.29,2.39-12.93,4.4-20,9.75-.26-.31-3,2.17-2.93,1.88-5.88,8.29-15.91,22.37-2.2,28.55,12.69,3.54,16.12.76,16.41.32s5-5.53,8.33-8.65L400,165.59l-12.22-19.27C387.77,146.6,387.39,146.91,387.16,147.09Z" transform="translate(-49.79 -4.61)"/><path class="cls-4" d="M387.57,146l.21.33C387.8,146.2,387.74,146.09,387.57,146Z" transform="translate(-49.79 -4.61)"/><path class="cls-4" d="M443.66,174.77c-1.86-2.43-5.08-3-7.83-2.39-1.78-.16-3.91.23-5.33-.48-10.45-.08-9.75,11.09-12.47,17.4-2.75,3.74-1.13,8.44-.3,12.21a9.56,9.56,0,0,0,7.51,5.8c5.5-1.23,11.91.49,15.84-3.15a11.07,11.07,0,0,0,4.69-11.25C444.88,186.84,446.43,180.16,443.66,174.77Z" transform="translate(-49.79 -4.61)"/><path class="cls-4" d="M380.35,137.37a6.23,6.23,0,0,0,2.84-7.7c.2-2-.52-3.76.2-5.11-.51-10-15-8.47-23.82-10.1-4.81-2.7-11.32-.44-16.5.53-3.74,1.66-6.72,4.54-7,7.63,1.61,5,.09,11.39,5.14,14.69,3.52,3.74,9.38,4.82,15.17,3.63C364.6,139.4,373.47,140.47,380.35,137.37Z" transform="translate(-49.79 -4.61)"/><path class="cls-4" d="M488.26,172.1c-3.9-2.91-2.48-8.18-5.46-11.32-2.42-2.75-4.81-5.82-9.07-5.06a4.89,4.89,0,0,0-2.75,3.73c-4,1.35-8,2.14-10.41,5.62-2.09,3-.45,7.65,1.05,10.64l6.53,12.53c2.59,4.23,5.36,9.3,10.91,10.65,3.81.91,7.28-1,10.15-2.79,2.11-3.25,6.45-4.85,8-8.7C498.48,180.69,492.3,176.73,488.26,172.1Z" transform="translate(-49.79 -4.61)"/><path class="cls-4" d="M529.88,123c-8.63-1.3-15.94-2.45-25.58-2.18-6.93-.25-12.51-.33-15.93,12.64a13,13,0,0,0,3.77,9.55c8.27.42,16.18,5.35,24.49,8,6.64,1.06,14,1.38,20-4.46,2-2.61,2.48-6.25,2-9.45A16.5,16.5,0,0,0,529.88,123Z" transform="translate(-49.79 -4.61)"/><path class="cls-4" d="M484.7,99.66c5.84,2.15,12.59.58,18.2-.36a38.17,38.17,0,0,0,6.65-.63c1.08-.16,2.09.16,3.5-.66.23.25,5.8-2.59,7.45-3.41,6.64-3,11.16-5.94,13.66-12.36,1.53-4.64-1.47-8.67-4.55-12-2.83-5.72-11.49-6-16.11-2.07C506.4,75.62,498,83,488.16,86.42c-2.92,2.85-5.12,6.21-5.5,10A4.8,4.8,0,0,0,484.7,99.66Z" transform="translate(-49.79 -4.61)"/><path class="cls-4" d="M350.83,94.05c12,2.78,24.44,6.72,33.87,14.11,4.69,1,9.43,1.41,14.1-.46a5,5,0,0,0,2.16-3.79c-.55-6.58-5.69-12.17-10-17.1a24.8,24.8,0,0,0-4.2-6.07c-.81-.93-1-2.08-2.42-2.78,0-.28-5.86-4.22-7.85-5.24-6.72-4.59-12.44-7.38-20.92-6.13-5.79,1.19-9,6-10.94,11C339.61,83.38,344.14,92,350.83,94.05Z" transform="translate(-49.79 -4.61)"/><path class="cls-4" d="M399.69,71.05c3.57,6.3,7.05,13.43,14.15,17.21,4.23,2.65,9-.34,13.5-.52,1-.76,2-1.52,1.79-3a152.4,152.4,0,0,1-4.89-29.48c-1.6-8.11-3.19-16.22-8.55-22.39-3.64-2.61-8.15-2.42-12.37-2-4.77-.12-10.37-.92-14,2.48-2.9,5.13.05,11.65,1,17.45C397,55.74,396.45,64.51,399.69,71.05Z" transform="translate(-49.79 -4.61)"/><path class="cls-4" d="M455.1,78.54c3.33,1.54,7.81,1.45,10.75-.73,5-5.7,5-13.09,6.84-19.83.48-7.83,5.31-14.28,8.46-21.37,1.36-3.83,1.34-9-1.84-12-5.2-5.65-12.65-2.88-19.53-1.06-.33.71-1.78.34-2.31.78a7.1,7.1,0,0,0-4.15,1.82c-2.13,1.53-1.91,4.51-2.13,6.7.86,6.73,1,13.15-.31,19.19-.34,3.66-2.13,6.94-3.22,10.54C447.09,68.69,449.43,75.55,455.1,78.54Z" transform="translate(-49.79 -4.61)"/></g><g id="radio"><path class="cls-5" d="M55.51,28.59v-5l-5.5.89v30h5.77V39c0-6.67,3.51-9.9,10.17-9.9V23.51C61,23.51,57.56,25.3,55.51,28.59Zm37.65,4.88c0-6.39-4-10-11.69-10a22.71,22.71,0,0,0-6.94,1.09l-1,5A22.68,22.68,0,0,1,81,28.17c4.88,0,6.53,1.92,6.53,5.78V35.6A11.22,11.22,0,1,0,80.3,55.25a11.61,11.61,0,0,0,7.62-2.75l.21,2h5.29l-.28-5.78V33.47Zm-12,17.11a6.5,6.5,0,1,1,0-13,6.5,6.5,0,1,1,0,13Zm45.43-22.33a13.77,13.77,0,0,0-10.79-4.95,15.7,15.7,0,0,0-15.53,16,15.65,15.65,0,0,0,15.53,15.94,13.81,13.81,0,0,0,10.92-5.08v4.4h5.64V4.61l-5.78,1V28.25ZM116.45,50A10.47,10.47,0,0,1,106,39.25a10.48,10.48,0,1,1,21,0A10.54,10.54,0,0,1,116.45,50Zm26.12,4.47h5.77v-31l-5.77,1Zm2.88-45.83a3.88,3.88,0,1,0,3.92,3.84A3.85,3.85,0,0,0,145.45,8.67Zm27,14.63a16,16,0,1,0,16.36,16A16,16,0,0,0,172.45,23.3Zm0,26.73a10.44,10.44,0,0,1-10.51-10.78,10.55,10.55,0,1,1,21.09,0A10.5,10.5,0,0,1,172.45,50Z" transform="translate(-49.79 -4.61)"/></g></g><g id="mazowieckie"><path class="cls-3" d="M82.09,253.72l-2.5-27L66.65,254.6l-12.9-27.9-2.5,27H49.79l3-32.22,13.86,29.93L80.5,221.5l3,32.22Z" transform="translate(-49.79 -4.61)"/><path class="cls-3" d="M166.3,240.43H153l-5.76,13.29h-1.58l14-31.91,14,31.91h-1.58Zm-.58-1.37-6.07-13.95-6,13.95Z" transform="translate(-49.79 -4.61)"/><path class="cls-3" d="M237.87,252.36h21.21l-.26,1.36H235.14l21.62-29.45H236.2l.31-1.36h22.93Z" transform="translate(-49.79 -4.61)"/><path class="cls-3" d="M320.45,238.31a15.91,15.91,0,1,1,15.89,15.85A15.7,15.7,0,0,1,320.45,238.31Zm30.31,0a14.41,14.41,0,1,0-14.43,14.49A14.31,14.31,0,0,0,350.76,238.31Z" transform="translate(-49.79 -4.61)"/><path class="cls-3" d="M445,254.65,434.74,226l-10.29,28.61-11.22-31.74h1.53l9.78,27.68,10.21-28.47L445,250.59l9.77-27.68h1.5Z" transform="translate(-49.79 -4.61)"/><path class="cls-3" d="M517.29,250.73l.3-1.5a12.11,12.11,0,0,0,8.23,3.61c4.45,0,7.48-3,7.48-7,0-3.39-1.76-5.5-6.69-7.13l-.92-.31c-4.45-1.5-7.44-3.7-7.44-8.14s3.29-7.74,8.1-7.74a13.06,13.06,0,0,1,7.18,2.29l-.31,1.5a11.7,11.7,0,0,0-6.82-2.43c-4,0-6.69,2.69-6.69,6.43s2.55,5.41,6.47,6.69l.92.3c5.42,1.81,7.67,4.5,7.67,8.5,0,4.84-3.66,8.41-8.94,8.41A13.08,13.08,0,0,1,517.29,250.73Z" transform="translate(-49.79 -4.61)"/><path class="cls-3" d="M599.9,252.36h21.22l-.26,1.36H597.18l21.61-29.45H598.24l.3-1.36h22.94Z" transform="translate(-49.79 -4.61)"/><path class="cls-3" d="M702.19,252.36l-.26,1.36H686V222.91h15.45l.31,1.36h-14.3V237h12.1v1.36h-12.1v14.05Z" transform="translate(-49.79 -4.61)"/><path class="cls-3" d="M523.78,46.84c0,5-4.45,8.93-10.17,8.93s-10.17-3.91-10.17-8.93a8.22,8.22,0,0,1,4.76-7.35,8,8,0,0,1-4.27-7c0-4.75,4.18-8.5,9.68-8.5s9.73,3.74,9.73,8.5a8,8,0,0,1-4.31,7A8.21,8.21,0,0,1,523.78,46.84Zm-4.71-.32a5.47,5.47,0,1,0-5.46,5.1A5.26,5.26,0,0,0,519.07,46.52ZM508.55,32.89a5.07,5.07,0,1,0,5.06-4.8A4.85,4.85,0,0,0,508.55,32.89Z" transform="translate(-49.79 -4.61)"/><path class="cls-3" d="M548.17,46.84c0,5-4.45,8.93-10.17,8.93s-10.17-3.91-10.17-8.93a8.23,8.23,0,0,1,4.75-7.35,8.05,8.05,0,0,1-4.26-7c0-4.75,4.18-8.5,9.68-8.5s9.73,3.74,9.73,8.5a8,8,0,0,1-4.31,7A8.23,8.23,0,0,1,548.17,46.84Zm-4.71-.32a5.47,5.47,0,1,0-5.46,5.1A5.26,5.26,0,0,0,543.46,46.52ZM532.94,32.89a5.07,5.07,0,1,0,5.06-4.8A4.85,4.85,0,0,0,532.94,32.89Z" transform="translate(-49.79 -4.61)"/><path class="cls-3" d="M552.71,52.51a3.3,3.3,0,0,1,6.59,0,3.3,3.3,0,0,1-6.59,0Z" transform="translate(-49.79 -4.61)"/><path class="cls-3" d="M583.47,24.48l-12.1,30.81h-5.06L576.74,29H562.52l.79-4.49Z" transform="translate(-49.79 -4.61)"/><path class="cls-3" d="M601.56,38.25h9.78v4.36h-9.78V55.28h-4.7V24.47h16l.75,4.36H601.56v9.42Z" transform="translate(-49.79 -4.61)"/><path class="cls-3" d="M645.66,55.28,643.94,37.1,633.47,55.86,623,37.2l-1.72,18.09h-4.75l3.26-32.48,13.69,24.38,13.64-24.38,3.27,32.48h-4.73Z" transform="translate(-49.79 -4.61)"/></g></g></g></g></g></svg>