<svg width="204" height="111" viewBox="0 0 204 111" fill="none" xmlns="http://www.w3.org/2000/svg">
<path d="M150 54.5L130 28.5H151.5L161 40L168 31C168 31 169.5 28.5 171.5 28.5H192L171.5 54.5L192.5 82.5H171L160 68L149.5 82.5H128.5L150 54.5Z" fill="white" stroke="white"/>
<path d="M33 82.5L9.82031 28H29.8203C31 28 32 29.5 32.5 31L41.5 58L52 28H73L50 82.5H33Z" fill="white" stroke="white"/>
<path d="M10.166 22V8.7H15.144C16.2713 8.7 17.2403 8.88367 18.051 9.251C18.8617 9.60567 19.4823 10.125 19.913 10.809C20.3563 11.4803 20.578 12.2973 20.578 13.26C20.578 14.1973 20.3563 15.008 19.913 15.692C19.4823 16.3633 18.8617 16.8827 18.051 17.25C17.2403 17.6047 16.2713 17.782 15.144 17.782H10.945L11.572 17.136V22H10.166ZM19.248 22L15.828 17.174H17.348L20.787 22H19.248ZM11.572 17.25L10.945 16.585H15.106C16.436 16.585 17.443 16.2937 18.127 15.711C18.8237 15.1283 19.172 14.3113 19.172 13.26C19.172 12.196 18.8237 11.3727 18.127 10.79C17.443 10.2073 16.436 9.916 15.106 9.916H10.945L11.572 9.251V17.25ZM22.1485 22L28.2285 8.7H29.6155L35.6955 22H34.2135L28.6275 9.517H29.1975L23.6115 22H22.1485ZM24.5425 18.447L24.9605 17.307H32.6935L33.1115 18.447H24.5425ZM38.2756 22V8.7H43.6906C45.1093 8.7 46.3506 8.985 47.4146 9.555C48.4913 10.1123 49.3273 10.8913 49.9226 11.892C50.5179 12.8927 50.8156 14.0453 50.8156 15.35C50.8156 16.6547 50.5179 17.8073 49.9226 18.808C49.3273 19.8087 48.4913 20.594 47.4146 21.164C46.3506 21.7213 45.1093 22 43.6906 22H38.2756ZM39.6816 20.784H43.6146C44.7926 20.784 45.8123 20.556 46.6736 20.1C47.5476 19.6313 48.2253 18.9917 48.7066 18.181C49.1879 17.3577 49.4286 16.414 49.4286 15.35C49.4286 14.2733 49.1879 13.3297 48.7066 12.519C48.2253 11.7083 47.5476 11.075 46.6736 10.619C45.8123 10.1503 44.7926 9.916 43.6146 9.916H39.6816V20.784ZM54.3529 22V8.7H55.7589V22H54.3529ZM66.2803 22.114C65.2796 22.114 64.3486 21.9493 63.4873 21.62C62.6386 21.278 61.8976 20.803 61.2643 20.195C60.6436 19.5743 60.1559 18.8587 59.8013 18.048C59.4593 17.2247 59.2883 16.3253 59.2883 15.35C59.2883 14.3747 59.4593 13.4817 59.8013 12.671C60.1559 11.8477 60.6436 11.132 61.2643 10.524C61.8976 9.90333 62.6386 9.42833 63.4873 9.099C64.3359 8.757 65.2669 8.586 66.2803 8.586C67.2809 8.586 68.2056 8.757 69.0543 9.099C69.9029 9.42833 70.6376 9.897 71.2583 10.505C71.8916 11.113 72.3793 11.8287 72.7213 12.652C73.0759 13.4753 73.2533 14.3747 73.2533 15.35C73.2533 16.3253 73.0759 17.2247 72.7213 18.048C72.3793 18.8713 71.8916 19.587 71.2583 20.195C70.6376 20.803 69.9029 21.278 69.0543 21.62C68.2056 21.9493 67.2809 22.114 66.2803 22.114ZM66.2803 20.86C67.0783 20.86 67.8129 20.727 68.4843 20.461C69.1683 20.1823 69.7573 19.796 70.2513 19.302C70.7579 18.7953 71.1506 18.2127 71.4293 17.554C71.7079 16.8827 71.8473 16.148 71.8473 15.35C71.8473 14.552 71.7079 13.8237 71.4293 13.165C71.1506 12.4937 70.7579 11.911 70.2513 11.417C69.7573 10.9103 69.1683 10.524 68.4843 10.258C67.8129 9.97933 67.0783 9.84 66.2803 9.84C65.4823 9.84 64.7413 9.97933 64.0573 10.258C63.3733 10.524 62.7779 10.9103 62.2713 11.417C61.7773 11.911 61.3846 12.4937 61.0933 13.165C60.8146 13.8237 60.6753 14.552 60.6753 15.35C60.6753 16.1353 60.8146 16.8637 61.0933 17.535C61.3846 18.2063 61.7773 18.7953 62.2713 19.302C62.7779 19.796 63.3733 20.1823 64.0573 20.461C64.7413 20.727 65.4823 20.86 66.2803 20.86Z" fill="white"/>
<path d="M169.42 95.141H176.45V96.357H169.42V95.141ZM169.572 102H168.166V88.7H177.286V89.916H169.572V102ZM179.429 102V88.7H180.588L186.668 99.074H186.06L192.083 88.7H193.242V102H191.893V90.809H192.216L186.668 100.309H186.003L180.417 90.809H180.778V102H179.429Z" fill="white"/>
<circle cx="101.5" cy="55.5" r="22.5" stroke="white" stroke-width="16"/>
</svg>