<?xml version="1.0" encoding="UTF-8"?>
<svg width="837px" height="374px" viewBox="0 0 837 374" xmlns="http://www.w3.org/2000/svg" xmlns:xlink="http://www.w3.org/1999/xlink" version="1.1">
 <!-- Generated by Pixelmator Pro 1.3.4 -->
 <g id="new-group">
  <g id="new-group-1">
   <path id="path" d="M60.627 60.489 L776.327 60.489 776.327 313.959 60.627 313.959 Z" fill="#ffffff" fill-opacity="1" stroke="none"/>
   <path id="path-1" d="M313.597 75.169 L761.587 75.169 761.587 299.169 313.597 299.169 Z" fill="#f80072" fill-opacity="1" stroke="none"/>
  </g>
  <g id="new-group-2">
   <path id="path-2" d="M186.927 89.559 C147.452 89.507 111.835 113.245 96.692 149.701 81.549 186.156 89.864 228.144 117.759 256.075 145.653 284.007 187.63 292.379 224.105 277.285 260.581 262.19 284.367 226.604 284.367 187.129 284.383 161.257 274.124 136.45 255.848 118.154 237.572 99.858 212.776 89.572 186.915 89.559 M186.927 270.229 C153.307 270.27 122.975 250.049 110.082 219 97.188 187.95 104.273 152.191 128.031 128.404 151.79 104.617 187.54 97.489 218.605 110.345 249.67 123.202 269.927 153.509 269.927 187.129 269.953 209.16 261.22 230.297 245.652 245.884 230.083 261.471 208.957 270.229 186.926 270.229" fill="#f80072" fill-opacity="1" stroke="none"/>
   <path id="path-3" d="M186.877 119.879 C159.653 119.827 135.081 136.185 124.626 161.322 114.171 186.459 119.895 215.418 139.127 234.687 158.359 253.956 187.307 259.736 212.464 249.33 237.621 238.924 254.027 214.383 254.027 187.159 254.046 169.332 246.981 152.228 234.387 139.61 221.794 126.993 204.704 119.895 186.877 119.879 M186.877 240.229 C165.411 240.253 146.045 227.341 137.813 207.516 129.582 187.691 134.107 164.859 149.277 149.671 164.447 134.484 187.274 129.933 207.109 138.142 226.943 146.352 239.877 165.703 239.877 187.169 239.893 201.238 234.315 214.734 224.374 224.686 214.432 234.638 200.942 240.23 186.875 240.229" fill="#f80072" fill-opacity="1" stroke="none"/>
   <path id="path-4" d="M186.877 149.759 C167.127 149.759 149.537 167.379 149.537 187.169 149.537 206.959 167.127 224.579 186.877 224.579 206.627 224.579 224.217 206.959 224.217 187.169 224.217 167.379 206.627 149.759 186.877 149.759 M186.877 209.819 C177.716 209.819 169.457 204.301 165.951 195.837 162.446 187.373 164.383 177.631 170.861 171.153 177.339 164.675 187.081 162.738 195.545 166.243 204.009 169.749 209.527 178.008 209.527 187.169 209.532 193.172 207.153 198.93 202.913 203.177 198.672 207.425 192.918 209.814 186.916 209.819" fill="#f80072" fill-opacity="1" stroke="none"/>
   <path id="path-5" d="M74.797 299.159 L298.797 299.159 298.797 75.159 74.797 75.159 Z M284.097 284.459 L89.527 284.459 89.527 89.879 284.127 89.879 Z" fill="#f80072" fill-opacity="1" stroke="none"/>
  </g>
 </g>
 <path id="path-6" d="M669.992 266.883 C669.992 262.108 671.743 258.006 675.244 254.579 678.73 251.151 682.919 249.437 687.812 249.437 692.646 249.437 696.791 251.166 700.249 254.623 703.72 258.08 705.456 262.232 705.456 267.081 705.456 271.959 703.713 276.097 700.227 279.496 696.725 282.909 692.5 284.615 687.548 284.615 683.168 284.615 679.235 283.099 675.749 280.067 671.911 276.712 669.992 272.318 669.992 266.883 Z M675.156 266.949 C675.156 270.699 676.415 273.783 678.935 276.2 681.44 278.617 684.333 279.825 687.614 279.825 691.174 279.825 694.177 278.595 696.623 276.134 699.069 273.644 700.292 270.611 700.292 267.037 700.292 263.419 699.084 260.387 696.667 257.94 694.265 255.479 691.291 254.249 687.746 254.249 684.216 254.249 681.235 255.479 678.803 257.94 676.371 260.372 675.156 263.375 675.156 266.949 Z M663.532 250.074 L663.532 284 658.413 284 658.413 250.074 Z M625.739 284 L625.739 250.074 632.858 250.074 C636.271 250.074 638.967 250.411 640.944 251.085 643.068 251.744 644.995 252.865 646.723 254.447 650.224 257.64 651.975 261.837 651.975 267.037 651.975 272.252 650.151 276.471 646.503 279.693 644.672 281.305 642.753 282.425 640.747 283.055 638.871 283.685 636.213 284 632.771 284 Z M630.859 279.188 L633.166 279.188 C635.466 279.188 637.377 278.946 638.901 278.463 640.424 277.95 641.801 277.137 643.032 276.024 645.551 273.724 646.811 270.729 646.811 267.037 646.811 263.316 645.566 260.299 643.076 257.984 640.834 255.919 637.531 254.886 633.166 254.886 L630.859 254.886 Z M612.336 275.76 L597.812 275.76 594.033 284 588.518 284 605.305 247.943 621.499 284 615.896 284 Z M610.249 270.948 L605.217 259.413 599.943 270.948 Z M576.806 269.542 L587.309 284 581.047 284 571.357 270.113 570.434 270.113 570.434 284 565.314 284 565.314 250.074 571.313 250.074 C575.795 250.074 579.033 250.917 581.025 252.601 583.222 254.476 584.321 256.952 584.321 260.028 584.321 262.43 583.632 264.496 582.255 266.224 580.878 267.953 579.062 269.059 576.806 269.542 Z M570.434 265.653 L572.06 265.653 C576.909 265.653 579.333 263.8 579.333 260.094 579.333 256.622 576.975 254.886 572.258 254.886 L570.434 254.886 Z M544.704 254.886 L531.103 254.886 531.103 263.038 544.309 263.038 544.309 267.85 531.103 267.85 531.103 279.188 544.704 279.188 544.704 284 525.983 284 525.983 250.074 544.704 250.074 Z M517.832 250.074 L517.832 284 512.712 284 512.712 250.074 Z M488.015 263.609 L501.22 250.074 508.054 250.074 492.717 265.433 508.142 284 501.286 284 489.069 268.905 488.015 269.959 488.015 284 482.895 284 482.895 250.074 488.015 250.074 Z M475.842 255.128 L471.689 257.589 C470.912 256.241 470.173 255.362 469.47 254.952 468.737 254.483 467.792 254.249 466.635 254.249 465.214 254.249 464.035 254.652 463.098 255.458 462.16 256.249 461.691 257.245 461.691 258.446 461.691 260.101 462.922 261.434 465.383 262.445 L468.767 263.829 C471.521 264.943 473.535 266.301 474.809 267.905 476.083 269.509 476.721 271.476 476.721 273.805 476.721 276.925 475.681 279.503 473.601 281.539 471.506 283.59 468.906 284.615 465.8 284.615 462.856 284.615 460.424 283.744 458.505 282 456.616 280.257 455.437 277.804 454.968 274.64 L460.153 273.497 C460.388 275.489 460.798 276.866 461.384 277.628 462.438 279.093 463.976 279.825 465.998 279.825 467.595 279.825 468.92 279.291 469.975 278.221 471.03 277.152 471.557 275.797 471.557 274.156 471.557 273.497 471.466 272.893 471.282 272.344 471.099 271.794 470.814 271.289 470.426 270.827 470.037 270.366 469.536 269.934 468.92 269.531 468.305 269.128 467.573 268.744 466.723 268.377 L463.449 267.015 C458.806 265.052 456.484 262.181 456.484 258.402 456.484 255.853 457.458 253.722 459.406 252.008 461.354 250.279 463.779 249.415 466.679 249.415 470.59 249.415 473.644 251.319 475.842 255.128 Z M441.696 250.074 L441.696 279.188 451.672 279.188 451.672 284 436.577 284 436.577 250.074 Z M394.675 266.883 C394.675 262.108 396.425 258.006 399.926 254.579 403.413 251.151 407.602 249.437 412.495 249.437 417.329 249.437 421.474 251.166 424.931 254.623 428.403 258.08 430.139 262.232 430.139 267.081 430.139 271.959 428.396 276.097 424.909 279.496 421.408 282.909 417.182 284.615 412.231 284.615 407.851 284.615 403.918 283.099 400.432 280.067 396.594 276.712 394.675 272.318 394.675 266.883 Z M399.838 266.949 C399.838 270.699 401.098 273.783 403.618 276.2 406.123 278.617 409.016 279.825 412.297 279.825 415.856 279.825 418.859 278.595 421.306 276.134 423.752 273.644 424.975 270.611 424.975 267.037 424.975 263.419 423.767 260.387 421.35 257.94 418.947 255.479 415.974 254.249 412.429 254.249 408.898 254.249 405.917 255.479 403.486 257.94 401.054 260.372 399.838 263.375 399.838 266.949 Z M377.185 270.223 L377.185 284 372.065 284 372.065 250.074 377.866 250.074 C380.708 250.074 382.853 250.272 384.304 250.667 385.769 251.063 387.057 251.81 388.171 252.909 390.119 254.813 391.093 257.215 391.093 260.116 391.093 263.221 390.053 265.682 387.973 267.499 385.893 269.315 383.088 270.223 379.558 270.223 Z M377.185 265.477 L379.096 265.477 C383.798 265.477 386.149 263.668 386.149 260.05 386.149 256.549 383.725 254.798 378.876 254.798 L377.185 254.798 Z" fill="#ffffff" fill-opacity="1" stroke="none"/>
 <path id="path-7" d="M523.969 232.502 C521.142 233.013 520.059 232.722 518.542 231.046 516.679 228.988 516.681 228.904 518.662 226.226 519.771 224.727 523.788 221.604 527.589 219.287 531.39 216.971 537.38 212.487 540.899 209.324 544.418 206.161 548.895 201.082 550.847 198.037 552.799 194.992 555.669 189.229 557.224 185.231 558.78 181.234 560.93 173.699 562.003 168.487 563.075 163.276 564.24 155.297 564.593 150.756 564.945 146.215 565.83 141.543 566.559 140.373 567.288 139.203 569.058 137.951 570.491 137.592 571.953 137.225 574.284 137.504 575.799 138.228 578.164 139.358 578.574 140.263 579.098 145.509 579.426 148.804 579.306 155.548 578.83 160.496 578.355 165.444 577.232 172.194 576.336 175.496 575.439 178.798 573.18 184.875 571.314 189 569.449 193.125 566.29 198.969 564.294 201.987 562.298 205.005 558.378 209.897 555.582 212.858 552.787 215.819 547.745 220.211 544.377 222.618 541.009 225.025 535.834 228.09 532.877 229.429 529.92 230.767 525.911 232.15 523.969 232.502 Z M395.255 227 C392.746 227 390.754 226.363 389.783 225.25 388.944 224.288 387.749 222.517 387.128 221.316 386.508 220.115 386.006 215.615 386.013 211.316 386.02 207.017 386.873 199.45 387.908 194.5 388.942 189.55 391.354 181 393.267 175.5 395.18 170 399.327 158.975 402.482 151 405.637 143.025 409.759 132 411.64 126.5 413.522 121 414.935 115.375 414.781 114 414.546 111.91 413.903 111.45 410.863 111.196 408.863 111.029 402.338 112.064 396.363 113.496 390.388 114.927 381 117.492 375.5 119.196 370 120.899 363.342 122.511 360.704 122.778 356.678 123.185 355.515 122.893 353.454 120.957 352.104 119.689 351 117.577 351 116.263 351 114.301 352.116 113.37 357.25 111.049 360.688 109.496 368 106.84 373.5 105.148 379 103.457 388.419 100.911 394.431 99.491 400.443 98.072 409.893 96.037 415.431 94.969 420.969 93.902 431.575 92.097 439 90.959 446.425 89.822 458.575 88.245 466 87.456 473.425 86.667 487.888 86.017 498.139 86.011 514.705 86.001 517.029 86.203 519.033 87.826 520.926 89.359 521.177 90.241 520.599 93.323 520.099 95.991 519.116 97.406 517.005 98.498 514.8 99.638 510.494 100 499.156 100 490.937 100 479.552 100.46 473.856 101.023 468.16 101.585 458.396 102.991 452.159 104.148 441.593 106.108 440.692 106.458 438.983 109.269 437.973 110.929 433.909 119.727 429.95 128.82 425.992 137.913 420.046 152.361 416.737 160.927 413.428 169.492 409.852 179.425 408.79 183 407.421 187.607 406.689 194.014 406.278 205 405.697 220.5 405.697 220.5 402.449 223.75 399.881 226.318 398.373 227 395.255 227 Z M433.982 199 C432.407 199 430.787 198.465 430.383 197.81 429.978 197.156 429.728 189.393 429.826 180.56 429.924 171.727 430.496 161.811 431.097 158.525 431.698 155.238 433.039 150.883 434.078 148.847 435.117 146.811 436.874 144.857 437.983 144.505 439.092 144.153 440.787 144.118 441.75 144.427 442.712 144.736 444.4 146.354 445.5 148.024 446.6 149.694 448.417 151.296 449.539 151.585 450.66 151.874 452.781 151.654 454.251 151.094 455.722 150.536 458.629 148.972 460.712 147.62 462.796 146.268 467.65 144.194 471.5 143.013 475.689 141.727 479.848 141.073 481.856 141.386 483.701 141.673 486.289 142.615 487.606 143.477 489.454 144.688 490 145.936 490 148.946 490 151.639 489.232 153.759 487.52 155.794 486.156 157.414 483.699 159.296 482.059 159.976 479.459 161.052 478.64 160.941 475.67 159.105 473.56 157.801 470.597 157.001 467.882 157.004 465.3 157.006 462.183 157.81 460.294 158.962 458.53 160.038 455.722 163.298 454.053 166.209 452.384 169.119 450.058 174.425 448.885 178 447.712 181.575 445.849 186.648 444.743 189.273 443.638 191.898 441.409 195.161 439.79 196.523 438.157 197.897 435.571 199 433.982 199 Z M717.027 201.948 C714.537 201.919 709.768 200.88 706.429 199.639 703.09 198.397 698.317 195.916 695.822 194.124 691.285 190.866 691.285 190.866 685.393 193.931 682.152 195.617 676.474 197.734 672.775 198.635 667.956 199.81 663.42 200.135 656.775 199.781 649.382 199.387 645.976 198.651 639.991 196.151 635.861 194.426 628.951 190.947 624.636 188.421 616.789 183.828 616.789 183.828 613.829 186.664 612.201 188.224 609.886 190.047 608.684 190.714 607.483 191.383 604.873 191.945 602.885 191.965 600.783 191.985 598.244 191.193 596.819 190.073 595.472 189.013 593.515 186.251 592.471 183.935 591.054 180.793 590.626 177.794 590.784 172.113 590.9 167.926 591.429 161.35 591.959 157.5 592.49 153.65 594.039 146.116 595.402 140.758 596.766 135.4 599.129 128.2 600.654 124.758 602.179 121.316 604.721 116.25 606.304 113.5 607.886 110.75 610.603 106.999 612.341 105.165 614.078 103.33 616.767 101.166 618.316 100.355 619.865 99.544 622.34 99.02 623.816 99.19 625.953 99.437 626.485 100.009 626.429 102 626.39 103.375 624.185 109.675 621.529 116 618.873 122.325 615.191 131.686 613.346 136.802 611.501 141.918 609.313 149.996 608.484 154.754 607.177 162.248 607.166 163.595 608.403 164.832 609.354 165.782 610.749 166.029 612.578 165.57 614.257 165.148 621.112 159.09 630.202 149.994 640.843 139.347 646.602 134.364 650.428 132.491 654.247 130.623 656.996 129.964 660.037 130.187 662.577 130.374 664.7 131.144 665.295 132.095 665.845 132.973 666.001 134.858 665.643 136.285 665.268 137.779 661.71 141.76 657.246 145.678 652.986 149.418 645.337 156.634 640.25 161.714 634.815 167.14 631 171.765 631 172.926 631 174.155 632.764 176.118 635.656 178.107 638.217 179.869 642.557 182.164 645.301 183.207 648.046 184.249 650.856 184.885 651.548 184.62 652.239 184.355 653.307 181.793 653.922 178.927 654.537 176.062 656.706 170.546 658.743 166.67 660.996 162.383 665.016 157.054 669.01 153.062 672.623 149.45 678.427 144.981 681.92 143.12 685.411 141.261 690.794 139.08 693.883 138.273 696.973 137.466 701.166 137.029 703.203 137.301 705.24 137.574 708.281 138.776 709.962 139.973 712.645 141.884 713.442 142.009 716.493 141.002 718.405 140.371 720.929 140.16 722.102 140.532 723.931 141.113 724.161 141.764 723.713 145.104 723.425 147.247 722.056 150.912 720.67 153.25 719.284 155.587 716.956 159.075 715.496 161 714.036 162.925 711.752 166.623 710.421 169.217 709.002 171.981 708 175.658 708 178.099 708 180.565 708.844 183.63 710.07 185.613 711.559 188.023 713.311 189.279 716.32 190.093 718.619 190.715 721.737 191.679 723.25 192.234 725.362 193.009 726 193.897 726 196.065 726 197.847 725.181 199.46 723.777 200.443 722.521 201.323 719.586 201.977 717.027 201.948 Z M677 183.655 C678.375 183.397 681.203 181.269 683.285 178.925 685.366 176.582 688.856 171.028 691.039 166.582 693.222 162.137 695.287 157.044 695.626 155.266 696.108 152.74 695.86 151.883 694.491 151.358 693.491 150.975 691.246 151.49 689.263 152.557 687.352 153.587 683.841 156.708 681.462 159.493 679.083 162.278 675.986 166.569 674.58 169.028 673.007 171.78 672.019 175.058 672.012 177.55 672.005 179.778 672.563 182.168 673.25 182.862 673.938 183.557 675.625 183.914 677 183.655 Z M512.5 198.712 C505.532 198.937 501.58 198.616 499.466 197.656 497.797 196.898 494.996 194.842 493.24 193.087 491.485 191.331 489.504 188.076 488.838 185.853 487.908 182.751 487.894 180.535 488.778 176.323 489.411 173.304 491.063 168.358 492.448 165.332 493.834 162.305 496.332 158.106 497.999 156.002 499.666 153.897 503.41 150.595 506.319 148.664 509.228 146.733 514.382 144.219 517.772 143.077 521.163 141.935 525.994 141 528.508 141 531.203 141 534.798 141.877 537.265 143.135 539.567 144.309 542.728 146.638 544.29 148.311 545.852 149.983 547.804 152.654 548.627 154.247 549.504 155.941 550.125 159.82 550.125 163.595 550.125 168.421 549.467 171.491 547.515 175.774 546.002 179.093 542.508 183.934 539.202 187.29 536.066 190.475 531.025 194.275 528 195.735 523.401 197.955 520.862 198.443 512.5 198.712 Z M517.5 186.457 C519.7 186.15 522.4 185.299 523.5 184.566 524.6 183.833 526.491 182.162 527.702 180.853 528.913 179.544 530.601 176.806 531.452 174.769 532.303 172.731 533 169.275 533 167.088 533 164.369 532.265 162.258 530.677 160.411 528.578 157.97 527.863 157.759 523.22 158.205 519.707 158.542 516.953 159.562 514.503 161.43 512.533 162.933 509.76 165.917 508.34 168.063 506.92 170.208 505.53 173.993 505.25 176.474 504.91 179.49 505.198 181.534 506.12 182.645 506.879 183.559 508.849 184.916 510.5 185.661 512.3 186.473 515.099 186.792 517.5 186.457 Z M524.009 131.726 C521.484 132.064 520.023 131.732 519.09 130.609 517.98 129.271 518.02 128.619 519.332 126.616 520.195 125.299 523.736 122.362 527.201 120.089 530.665 117.816 535.207 115.439 537.293 114.807 540.474 113.843 541.342 113.913 542.673 115.244 543.723 116.295 544.044 117.689 543.622 119.37 543.271 120.767 541.525 123.004 539.742 124.341 537.959 125.678 534.498 127.778 532.051 129.008 529.604 130.238 525.985 131.461 524.009 131.726 Z M573.772 126 C573.042 126 571.496 125.336 570.337 124.523 569.177 123.711 567.932 121.866 567.57 120.423 567.208 118.979 567.416 116.27 568.032 114.402 568.649 112.535 570.119 110.33 571.299 109.503 572.479 108.677 575.119 108 577.166 108 579.877 108 581.309 108.603 582.443 110.223 583.299 111.445 584 113.82 584 115.5 584 117.18 583.298 119.558 582.439 120.783 581.581 122.009 579.578 123.684 577.989 124.506 576.4 125.328 574.502 126 573.772 126 Z" fill="#ffffff" fill-opacity="1" stroke="none"/>
</svg>
