<svg width="226" height="107" viewBox="0 0 226 107" fill="none" xmlns="http://www.w3.org/2000/svg">
<g id="Layer_1" clip-path="url(#clip0_3051_18170)">
<g id="Layer_1-2">
<path id="Vector" d="M0.200012 87.2C0.200012 87 0.400012 86.8 0.600012 86.8H5.80001C8.40001 86.8 10.6 88.9 10.6 91.5C10.6 94.1 8.40001 96.3 5.80001 96.3H3.60001V101.3C3.60001 101.5 3.40001 101.7 3.20001 101.7H0.700012C0.500012 101.7 0.300012 101.5 0.300012 101.3V87.1L0.200012 87.2ZM5.50001 93.2C6.40001 93.2 7.20001 92.5 7.20001 91.5C7.20001 90.5 6.40001 89.9 5.50001 89.9H3.50001V93.2H5.50001Z" fill="#563FFF"/>
<path id="Vector_2" d="M19.7 86.5C24 86.5 27.4 89.9 27.4 94.2C27.4 98.5 24 101.9 19.7 101.9C15.4 101.9 12 98.5 12 94.2C12 89.9 15.4 86.5 19.7 86.5ZM19.7 98.5C22.1 98.5 24 96.6 24 94.2C24 91.8 22.1 89.9 19.7 89.9C17.3 89.9 15.4 91.8 15.4 94.2C15.4 96.6 17.3 98.5 19.7 98.5Z" fill="#563FFF"/>
<path id="Vector_3" d="M30.4 87.2C30.4 87 30.6 86.8 30.8 86.8H36C40.1 86.8 43.5 90.2 43.5 94.3C43.5 98.4 40.1 101.8 36 101.8H30.8C30.6 101.8 30.4 101.6 30.4 101.4V87.2ZM35.7 98.6C38.1 98.6 39.9 96.7 39.9 94.3C39.9 91.9 38.1 90 35.7 90H33.6V98.7H35.7V98.6Z" fill="#563FFF"/>
<path id="Vector_4" d="M46.4 87.3C46.4 87 46.6 86.8 46.9 86.8H49.4C49.7 86.8 49.9 87 49.9 87.3V92.9L54.6 87C54.6 86.9 54.9 86.8 55 86.8H57.7C58.1 86.8 58.3 87.3 58.1 87.6L53.1 93.9L58.6 101C58.8 101.3 58.6 101.8 58.2 101.8H55.2C55.1 101.8 54.9 101.8 54.8 101.7L49.9 95V101.4C49.9 101.7 49.7 101.9 49.4 101.9H46.9C46.6 101.9 46.4 101.7 46.4 101.4V87.3Z" fill="#563FFF"/>
<path id="Vector_5" d="M61.2 87.2C61.2 87 61.4 86.8 61.6 86.8H68C70.6 86.8 72.7 88.9 72.7 91.4C72.7 93.9 71.4 94.9 69.5 95.7L72.4 101.1C72.5 101.4 72.4 101.7 72 101.7H69.2C69 101.7 68.9 101.6 68.9 101.5L66.1 95.8H64.6V101.3C64.6 101.5 64.4 101.7 64.2 101.7H61.7C61.5 101.7 61.3 101.5 61.3 101.3V87.1L61.2 87.2ZM67.7 93.2C68.6 93.2 69.3 92.4 69.3 91.5C69.3 90.6 68.6 89.9 67.7 89.9H64.5V93.2H67.7Z" fill="#563FFF"/>
<path id="Vector_6" d="M75.9 87.2C75.9 87 76.1 86.8 76.3 86.8H85.2C85.4 86.8 85.6 87 85.6 87.2V89.5C85.6 89.7 85.4 89.9 85.2 89.9H79.3V92.6H84.2C84.4 92.6 84.6 92.8 84.6 93V95.3C84.6 95.5 84.4 95.7 84.2 95.7H79.3V98.6H85.2C85.4 98.6 85.6 98.8 85.6 99V101C85.6 101.4 85.4 101.5 85.2 101.7C84.8 102.1 84.2 102.8 84.2 103.7C84.2 104.6 84.6 105.1 85.7 105.1C86.8 105.1 86.3 105.1 86.6 105C86.9 105 87.1 105.2 87.1 105.4V106.1C87.1 106.3 86.9 106.5 86.8 106.5C86.8 106.5 86.1 106.7 85.5 106.7C83.9 106.7 82.5 105.9 82.5 104.3C82.5 102.7 83.2 102.2 83.7 101.7H76.4C76.2 101.7 76 101.5 76 101.3V87.1L75.9 87.2Z" fill="#563FFF"/>
<path id="Vector_7" d="M95.4 86.5C97.5 86.5 99.1 87.2 100.6 88.5C100.8 88.7 100.8 88.9 100.6 89.1L98.9 90.8C98.7 91 98.5 91 98.4 90.8C97.6 90.1 96.6 89.7 95.5 89.7C93.1 89.7 91.3 91.7 91.3 94.1C91.3 96.5 93.1 98.4 95.5 98.4C97.9 98.4 97.6 98 98.4 97.4C98.6 97.3 98.8 97.3 99 97.4L100.7 99.2C100.9 99.4 100.8 99.6 100.7 99.8C99.2 101.2 97.4 101.9 95.5 101.9C91.2 101.9 87.8 98.5 87.8 94.2C87.8 89.9 91.2 86.5 95.5 86.5H95.4Z" fill="#563FFF"/>
<path id="Vector_8" d="M101.6 101.2L108.3 86.8C108.3 86.7 108.5 86.6 108.7 86.6H108.9C109 86.6 109.2 86.7 109.3 86.8L116 101.2C116.1 101.5 116 101.8 115.6 101.8H113.2C112.8 101.8 112.6 101.7 112.5 101.3L111.7 99.6H105.9L105.1 101.3C105 101.6 104.8 101.8 104.3 101.8H101.9C101.6 101.8 101.4 101.5 101.5 101.2H101.6ZM110.4 96.6L108.8 93.1L107.2 96.6H110.4Z" fill="#563FFF"/>
<path id="Vector_9" d="M119.5 86.9C119.5 86.7 119.7 86.6 119.9 86.6H120.2C120.3 86.6 120.5 86.6 120.6 86.8L125.6 96L130.6 86.8C130.6 86.7 130.9 86.6 131 86.6H131.3C131.5 86.6 131.7 86.8 131.7 86.9L134.1 101.3C134.1 101.6 134 101.8 133.7 101.8H131.2C131 101.8 130.8 101.6 130.8 101.5L129.8 94.9L126.2 101.8C126.2 101.9 125.9 102 125.8 102H125.4C125.3 102 125.1 101.9 125 101.8L121.4 94.9L120.5 101.5C120.5 101.7 120.3 101.8 120.1 101.8H117.6C117.3 101.8 117.2 101.6 117.2 101.3L119.6 86.9H119.5Z" fill="#563FFF"/>
<path id="Vector_10" d="M139.6 94.5L134.9 87.4C134.7 87.1 134.9 86.8 135.2 86.8H138C138.2 86.8 138.3 86.9 138.3 87L141.3 91.4L144.3 87C144.3 87 144.4 86.8 144.6 86.8H147.4C147.7 86.8 147.9 87.1 147.7 87.4L142.9 94.5V101.3C142.9 101.5 142.7 101.7 142.5 101.7H140C139.8 101.7 139.6 101.5 139.6 101.3V94.5Z" fill="#563FFF"/>
<path id="Vector_11" d="M156.9 89.9H153.8C153.6 89.9 153.4 89.7 153.4 89.5V87.2C153.4 87 153.6 86.8 153.8 86.8H163.3C163.5 86.8 163.7 87 163.7 87.2V89.5C163.7 89.7 163.5 89.9 163.3 89.9H160.2V101.3C160.2 101.5 160 101.7 159.8 101.7H157.2C157 101.7 156.8 101.5 156.8 101.3V89.9H156.9Z" fill="#563FFF"/>
<path id="Vector_12" d="M166.2 87.2C166.2 87 166.4 86.8 166.6 86.8H175.5C175.7 86.8 175.9 87 175.9 87.2V89.5C175.9 89.7 175.7 89.9 175.5 89.9H169.6V92.6H174.5C174.7 92.6 174.9 92.8 174.9 93V95.3C174.9 95.5 174.7 95.7 174.5 95.7H169.6V98.6H175.5C175.7 98.6 175.9 98.8 175.9 99V101.3C175.9 101.5 175.7 101.7 175.5 101.7H166.6C166.4 101.7 166.2 101.5 166.2 101.3V87.1V87.2Z" fill="#563FFF"/>
<path id="Vector_13" d="M180.6 86.9C180.6 86.7 180.8 86.6 181 86.6H181.3C181.4 86.6 181.6 86.6 181.7 86.8L186.7 96L191.7 86.8C191.7 86.7 192 86.6 192.1 86.6H192.4C192.6 86.6 192.8 86.8 192.8 86.9L195.2 101.3C195.2 101.6 195.1 101.8 194.8 101.8H192.3C192.1 101.8 191.9 101.6 191.9 101.5L190.9 94.9L187.3 101.8C187.3 101.9 187 102 186.9 102H186.5C186.4 102 186.2 101.9 186.1 101.8L182.5 94.9L181.6 101.5C181.6 101.7 181.4 101.8 181.2 101.8H178.7C178.4 101.8 178.3 101.6 178.3 101.3L180.7 86.9H180.6Z" fill="#563FFF"/>
<path id="Vector_14" d="M198.2 87.2C198.2 87 198.4 86.8 198.6 86.8H203.8C206.4 86.8 208.6 88.9 208.6 91.5C208.6 94.1 206.4 96.3 203.8 96.3H201.6V101.3C201.6 101.5 201.4 101.7 201.2 101.7H198.7C198.5 101.7 198.3 101.5 198.3 101.3V87.1L198.2 87.2ZM203.6 93.2C204.5 93.2 205.3 92.5 205.3 91.5C205.3 90.5 204.5 89.9 203.6 89.9H201.6V93.2H203.6Z" fill="#563FFF"/>
<path id="Vector_15" d="M217.8 86.5C222.1 86.5 225.5 89.9 225.5 94.2C225.5 98.5 222.1 101.9 217.8 101.9C213.5 101.9 210.1 98.5 210.1 94.2C210.1 89.9 213.5 86.5 217.8 86.5ZM217.8 98.5C220.2 98.5 222.1 96.6 222.1 94.2C222.1 91.8 220.2 89.9 217.8 89.9C215.4 89.9 213.5 91.8 213.5 94.2C213.5 96.6 215.4 98.5 217.8 98.5Z" fill="#563FFF"/>
<path id="Vector_16" fill-rule="evenodd" clip-rule="evenodd" d="M115.7 25.9C111.6 21.9 106.3 19.9 99.8 19.9C93.3 19.9 88.4 21.7 84.2 25.4C80.2 29 77.9 33.8 77.3 39.9C76.9 43.7 76.9 48 77.3 52.8C77.8 58.4 80.2 63.1 84.4 66.8C88.7 70.4 94 72.2 100.2 72.2C106.4 72.2 111.8 71.1 115.4 69C118.1 67.4 119.5 65.5 119.5 63.2C119.5 61.2 118.7 59.6 117 58.3C115.4 57.1 113.2 57 110.9 58.1C107.2 59.8 103.8 60.6 100.8 60.6C97.6 60.6 95 59.8 93.1 58.4C91.2 56.9 90.1 54.8 90.1 52.3V50.5L115.7 50.4C119.6 50.4 121.7 48.2 121.7 44.2V42C121.7 35.2 119.7 29.8 115.6 25.8L115.7 25.9ZM107.5 42.6H90.1V41.4C90.1 34.5 93.7 30.5 100 30.5C106.3 30.5 105.3 31.4 107.1 33.2C108.7 34.9 109.6 37.1 109.7 39.9C109.7 42.4 108.1 42.6 107.5 42.6Z" fill="#563FFF"/>
<path id="Vector_17" fill-rule="evenodd" clip-rule="evenodd" d="M176.6 19.7C162.1 19.7 150.4 31.5 150.4 45.9C150.4 60.3 162.2 72.2 176.6 72.2C191 72.2 202.9 60.4 202.9 45.9C202.9 31.4 191.1 19.7 176.6 19.7ZM176.6 58.5C169.7 58.5 164.1 52.9 164.1 45.9C164.1 38.9 169.7 33.3 176.6 33.3C183.5 33.3 189.2 38.9 189.2 45.9C189.2 52.9 183.6 58.5 176.6 58.5Z" fill="#563FFF"/>
<path id="Vector_18" fill-rule="evenodd" clip-rule="evenodd" d="M69.5 40.8C69.5 26.7 63 19.9 49.7 19.9C36.4 19.9 39.2 21.6 34.4 24.9L33.6 25.5L32.9 24.8C29.4 21.5 25.2 19.9 19.9 19.9C14.6 19.9 7.2 21.7 1.9 25.9C0.3 27.1 0 28.7 0 31.7V65.1C0 68.9 3.2 72.2 6.9 72.2C10.6 72.2 13.8 69.1 13.8 65.1V35.7L14.3 35.3C16.4 33.9 18.5 33.3 20.6 33.3C22.7 33.3 27.9 34.4 27.9 41.4V65.1C27.9 68.9 31 72.2 34.7 72.2C38.4 72.2 41.6 69.1 41.6 65.1V36L42 35.6C43.9 34 46.1 33.2 48.4 33.2C53.4 33.2 55.7 35.8 55.7 41.5V65C55.7 69.1 58.4 72.1 62.5 72.1C66.6 72.1 69.4 69.1 69.4 65V40.7L69.5 40.8Z" fill="#563FFF"/>
<path id="Vector_19" fill-rule="evenodd" clip-rule="evenodd" d="M142.7 7.1C142.7 3.2 139.7 0 135.9 0C132.1 0 129 3 129 7.1V65.1C129 69 132 72.2 135.8 72.2C139.6 72.2 142.7 69.2 142.7 65.1V7.1Z" fill="#563FFF"/>
<path id="Vector_20" d="M216.1 72.2C221.236 72.2 225.4 68.0362 225.4 62.9C225.4 57.7637 221.236 53.6 216.1 53.6C210.964 53.6 206.8 57.7637 206.8 62.9C206.8 68.0362 210.964 72.2 216.1 72.2Z" fill="#563FFF"/>
</g>
</g>
<defs>
<clipPath id="clip0_3051_18170">
<rect width="225.5" height="106.7" fill="white"/>
</clipPath>
</defs>
</svg>
