<?xml version="1.0" encoding="UTF-8"?>
<!-- Generator: Adobe Illustrator 28.0.0, SVG Export Plug-In . SVG Version: 6.00 Build 0)  -->
<svg version="1.1" id="Isolation_Mode" xmlns="http://www.w3.org/2000/svg" xmlns:xlink="http://www.w3.org/1999/xlink" x="0px" y="0px" viewBox="0 0 492.3 115.4" style="enable-background:new 0 0 492.3 115.4;" xml:space="preserve">
<style type="text/css">
	.st0{fill:#D000F0;}
</style>
<path class="st0" d="M470.3,46.7V93c0,13.2,7.2,12.1,22,11.5v8.9c-20.6,3.1-32.1-2-32.1-20.3V46.7h-16.1v-9.8h16.1V18.6l10.1-3.1  v21.4h22v9.8H470.3z M369.6,70.4h57c-2.1-16.8-14.4-25.5-27.5-25.5C383.1,44.9,371.6,55.5,369.6,70.4 M437.1,75.5  c0,1.5-0.2,3.2-0.3,4.7h-67.1c2.1,15.6,14.2,25.2,30.4,25.2c12.1,0,20.5-5.7,24.6-13l8.9,5.2c-6.4,10.4-18.2,17.6-33.6,17.6  c-24.2,0-40.7-17-40.7-40.1c0-22.5,16.2-40.1,39.9-40.1C422.6,35.1,437.1,54.5,437.1,75.5 M349.6,103.6v9.8h-58.1v-6.7L334,46.8h-41  V37h55.1v6.7l-42.5,59.9H349.6z M253.1,36.9h28.3v76.5h-28.3V36.9z M251.5,15.6c0-8.4,7.2-15.6,15.7-15.6c8.4,0,15.6,7.2,15.6,15.6  s-7.2,15.6-15.6,15.6C258.7,31.2,251.5,24,251.5,15.6 M212.1,2h28.3v111.4h-28.3L212.1,2L212.1,2z M171.4,2h28.3v111.4h-28.3V2z   M130.8,15.6C130.8,7.2,138,0,146.5,0c8.4,0,15.6,7.2,15.6,15.6s-7.2,15.6-15.6,15.6C138,31.2,130.8,24,130.8,15.6 M159.1,69.3v44.1  h-28.3V72.3c0-6.9-3.7-10.2-9.5-10.2c-6.9,0-10.4,4.6-10.4,12.1v39.2H82.7V6.5H111v38c4.6-6.3,11.6-9.6,20.5-9.6  C147.3,34.9,159.1,45.6,159.1,69.3 M0,75.2c0-22.9,17.4-40.3,40.8-40.3c15.3,0,28.4,7.9,35.1,20L52.1,68.5  c-2.1-3.7-6.3-6.4-11.3-6.4c-7.2,0-12.5,5.5-12.5,13.1s5.3,13.1,12.5,13.1c5,0,9.3-2.7,11.3-6.6l23.8,13.7  c-6.7,12.2-19.9,20-35.1,20C17.4,115.5,0,98.1,0,75.2"/>
</svg>