<?xml version="1.0" encoding="utf-8"?>
<!-- Generator: Adobe Illustrator 24.1.2, SVG Export Plug-In . SVG Version: 6.00 Build 0)  -->
<svg version="1.1"
	 id="svg2" xmlns:inkscape="http://www.inkscape.org/namespaces/inkscape" xmlns:sodipodi="http://sodipodi.sourceforge.net/DTD/sodipodi-0.dtd" xmlns:svg="http://www.w3.org/2000/svg"
	 xmlns="http://www.w3.org/2000/svg" xmlns:xlink="http://www.w3.org/1999/xlink" x="0px" y="0px" viewBox="0 0 649.3 125.3"
	 style="enable-background:new 0 0 649.3 125.3;" xml:space="preserve">
<style type="text/css">
	.st0{clip-path:url(#SVGID_2_);}
	.st1{fill:url(#path26_1_);}
	.st2{fill:#FFFFFF;}
	.st3{clip-path:url(#SVGID_4_);}
	.st4{fill:url(#path52_1_);}
	.st5{fill-rule:evenodd;clip-rule:evenodd;fill:#D3D2D2;}
	.st6{fill-rule:evenodd;clip-rule:evenodd;fill:#E9E9E9;}
	.st7{fill-rule:evenodd;clip-rule:evenodd;fill:#FFFFFF;}
</style>
<sodipodi:namedview  bordercolor="#666666" borderopacity="1.0" id="namedview4" inkscape:pagecheckerboard="0" inkscape:pageopacity="0.0" inkscape:pageshadow="2" pagecolor="#ffffff">
	</sodipodi:namedview>
<g id="g8" transform="matrix(1.3333333,0,0,-1.3333333,0,125.33333)" inkscape:groupmode="layer" inkscape:label="ink_ext_XXXXXX">
	<g id="g10" transform="scale(0.1)">
		<g id="g12">
			<g>
				<defs>
					<rect id="SVGID_1_" x="418.9" y="403.3" width="128.2" height="123.9"/>
				</defs>
				<clipPath id="SVGID_2_">
					<use xlink:href="#SVGID_1_"  style="overflow:visible;"/>
				</clipPath>
				<g id="g14" class="st0">
					
						<radialGradient id="path26_1_" cx="682.8662" cy="-2296.0325" r="47.2714" gradientTransform="matrix(1.3333 0 0 1.3333 -427.5001 3526.6675)" gradientUnits="userSpaceOnUse">
						<stop  offset="0" style="stop-color:#C8171E"/>
						<stop  offset="1" style="stop-color:#ED1B26"/>
					</radialGradient>
					<path id="path26" class="st1" d="M2.3,929.9h961.4V0.7H2.3V929.9"/>
				</g>
			</g>
		</g>
		<path id="path28" class="st2" d="M4451.1,543.3c104.8,0,169,6.4,192.6,19.1c23.7,12.7,35.4,47.5,35.4,104.4
			c0,62.3-11.7,100.4-35.4,114.4c-23.7,14.1-87.8,21-192.6,21c-104.8,0-169-7-192.6-21c-23.7-14.1-35.4-52.1-35.4-114.4
			c0-56.9,11.7-91.7,35.4-104.4C4282.2,549.6,4346.3,543.3,4451.1,543.3z M4451.1,413c-188.6,0-305.2,13.2-349.5,39.7
			c-44.3,26.5-66.6,96-67,208.6c0.4,122.8,22.6,198.7,67,227.7c44.4,29,160.9,43.5,349.5,43.5c189,0,305.7-14.5,350-43.3
			c44.4-28.8,66.4-103.9,66.4-224.8v-3c0.3-112.5-21.8-182.1-66.3-208.6C4756.9,426.2,4640.1,413,4451.1,413"/>
		<path id="path30" class="st2" d="M3779,418.1l0,509.3l0,0h188.4l0,0l0-509.3l0,0h-94H3779"/>
		<path id="path32" class="st2" d="M3086.2,548.3L3086.2,548.3h329.7c44.9,0,74.3,7.7,88.5,23.2c14.2,15.4,21.4,47.4,21.4,95.8
			c0,52.9-6.8,87.8-20.5,104.7c-13.7,16.8-42.1,25.2-85.4,25.2h-333.8l0,0L3086.2,548.3z M2897.8,418.1l0,509.3l0,0h94l0,0h496.1
			c90.8,0,151.3-17.7,181.8-53c29.8-34.9,44.7-104.4,44.7-208.9v-3.8c0.3-97.3-16.5-162.2-50.7-194.8c-34-32.6-102-48.8-204-48.8
			h-467.9l0,0L2897.8,418.1"/>
		<path id="path34" class="st2" d="M2415.5,800.1l-113.8-175.7l0,0H2527l0,0L2415.5,800.1z M1951.2,418.1l339.9,509.3h239.3
			l340.6-509.3l0,0h-107.4h-107.3l0,0l-55.6,89.1l0,0h-374.8l0,0l-57.7-89.1l0,0h-108.3L1951.2,418.1"/>
		<path id="path36" class="st2" d="M1356.5,676.5L1356.5,676.5h213.7c81.9,0,131.5,2.9,149,8.5c17.3,5.6,26.1,21.9,26.1,48.8
			c0,29.4-8.8,47.4-26.1,53.7c-17.5,6.4-67.1,9.6-149,9.6h-213.7l0,0V676.5z M1168.1,418.1l0,509.3l0,0h94l0,0h308.2
			c157.4,0,257.5-9.8,299.9-29.6c42.4-19.6,63.6-65.8,63.6-138.5c0-66.8-21.2-109.2-63.6-127.3c-14.7-6.2-36.6-11.4-65.7-15.4l0,0
			c22.3-5.1,40.1-11.6,53.8-19.6c39.4-22,62.6-63.9,69.4-125.6l6.1-53.5l0,0h-92.9h-93.3l0,0l-6.3,53.5c-3.3,29-11.7,48.5-25.1,59.1
			c-13.5,10.4-37.2,15.6-71,15.6h-288.7l0,0l0-128.2l0,0h-94H1168.1"/>
		<g id="g38">
			<g>
				<defs>
					<path id="SVGID_3_" d="M4491,239.9l77.4-222.4h121.8l149.5,317.9h-114.1l-94.2-211.1l-80.1,211.1h-120.5l-81.4-211.1h-1.8
						l-92,211.1h-114.1l148.9-317.9h122.3L4491,239.9z M3442.2,206.7l103.9,33.3l1.9-74.9l-105-33.6l0.4-36.5h240.8l0.9-76.6H3452
						h-112.5h-6.4l-3.5,316.9h111.1L3442.2,206.7z M1514.3,239.9l77.3-222.4h121.8l149.5,317.9H1749l-94.2-211.1l-80.1,211.1h-120.5
						l-81.4-211.1h-1.8l-92,211.1h-114.1l148.9-317.9h122.3L1514.3,239.9z M2462.6,240.7c0,5.9,2.5,10.6,7.6,14.2
						c5,3.5,13.5,5.3,25.3,5.3c119.6,0,187.7,0,204.4,0c12.8,0,21.5-1.3,26.2-4c4.7-2.7,7.1-7.8,7.1-15.4l-0.1-92.2l0-36.4
						c0-5.1-2.8-9.4-8.4-12.7c-5.6-3.4-14.4-5.1-26.3-5.1c-118.6,0-186.3,0-203.1,0c-12.8,0-21.4,1.3-26,3.8
						c-4.6,2.6-6.8,7.2-6.8,13.9L2462.6,240.7z M2361.6,99.5c0-12.9,1.6-23.9,5-32.8c3.3-8.9,9.6-17,18.7-24.3
						c8.2-6.7,17-11.9,26.5-15.6c9.4-3.6,21.6-6.3,36.5-8.1c14.9-1.8,33-2.9,54.3-3.4c21.3-0.5,52.5-0.8,93.5-0.8s72.4,0.3,94,0.8
						c21.6,0.5,39.8,1.7,54.6,3.4c14.8,1.8,27.1,4.4,37,8.1c9.9,3.6,18.8,8.8,26.7,15.6c9.1,7.3,15.4,15.4,18.7,24.3
						c3.4,8.9,5,19.8,5.1,32.8c0,30.7,0.1,67,0.1,108.8l0,46.1c0,12.9-1.6,23.7-5,32.2c-3.3,8.5-9.6,16.4-18.7,23.7
						c-7.9,7-16.6,12.4-26.2,16.2c-9.6,3.8-21.6,6.5-36,8.1c-14.4,1.6-32,2.6-52.7,3c-20.7,0.4-52.6,0.6-95.8,0.6
						c-43.2,0-75.1-0.2-95.8-0.6c-20.7-0.4-38.4-1.4-53.2-3c-14.8-1.6-27-4.3-36.7-8.1c-9.8-3.8-18.6-9.2-26.5-16.2
						c-9.1-7.3-15.4-15.2-18.7-23.7s-5-19.2-5.1-32.2L2361.6,99.5z M2175.1,190.5h-160.6l215.7-173.1h124.1l-146.4,112.8v1.6
						c21.3,0,39,1.9,53.2,5.7c14.1,3.8,25.5,9.7,34,17.8c8.5,8.1,14.8,18.7,18.7,32c4,13.2,6,29.5,6,48.9c0,19.4-2.5,35.5-7.5,48.1
						c-5,12.7-12.8,22.7-23.5,30.1c-10.6,7.4-24.3,12.7-41.1,16c-16.7,3.2-37.7,4.9-63,4.9h-297.5l-0.3-317.9h111.8l0.2,238.6h177.5
						c11,0,20.5-3,28.8-9.1c8.2-6.1,12.3-13.8,12.3-23.3c0-10.8-4.3-19-12.8-24.7C2196.2,193.4,2186.3,190.5,2175.1,190.5z
						 M2871.4,151.3c0-29.7-0.1-45-0.1-46.1c0-28.8,9.5-50.7,28.5-65.5c19-14.8,48.3-22.3,87.8-22.3c61.8,0,164.6,0,308.5,0
						l0.1,76.8c-180.7,0-279.4,0-296.2,0c-10.9,0-18.9,1.8-23.9,5.3c-5,3.5-7.5,8.2-7.5,14.2l-1.4,25.1l0.1,75.2l1.4,26.3
						c0,4.9,2.6,8.9,7.8,12.1c5.2,3.2,13.1,4.8,23.7,4.8c16.7,0,115.4,0,296.1,0l0.1,78.1c-143.9,0-246.7,0-308.5,0
						c-39.6,0-68.8-7.4-87.9-22.2c-19-14.8-28.6-36.8-28.6-65.9c0-0.8,0-16,0-45.7L2871.4,151.3z M3969.9,254.4l69.3-114.5h-138.7
						L3969.9,254.4z M4080.1,71.6l32.8-54.2H4237l-194.5,317.9h-143.3l-197-317.9h124.1l33.4,54.2L4080.1,71.6z"/>
				</defs>
				<clipPath id="SVGID_4_">
					<use xlink:href="#SVGID_3_"  style="overflow:visible;"/>
				</clipPath>
				<g id="g40" class="st3">
					
						<radialGradient id="path52_1_" cx="2572.3469" cy="-2512.7227" r="130.4275" gradientTransform="matrix(1.3333 0 0 1.3333 -427.5001 3526.6675)" gradientUnits="userSpaceOnUse">
						<stop  offset="0" style="stop-color:#C8171E"/>
						<stop  offset="1" style="stop-color:#ED1B26"/>
					</radialGradient>
					<path id="path52" class="st4" d="M4491,239.9l77.4-222.4h121.8l149.5,317.9h-114.1l-94.2-211.1l-80.1,211.1h-120.5l-81.4-211.1
						h-1.8l-92,211.1h-114.1l148.9-317.9h122.3L4491,239.9z M3442.2,206.7l103.9,33.3l1.9-74.9l-105-33.6l0.4-36.5h240.8l0.9-76.6
						H3452h-112.5h-6.4l-3.5,316.9h111.1L3442.2,206.7z M1514.3,239.9l77.3-222.4h121.8l149.5,317.9H1749l-94.2-211.1l-80.1,211.1
						h-120.5l-81.4-211.1h-1.8l-92,211.1h-114.1l148.9-317.9h122.3L1514.3,239.9z M2462.6,240.7c0,5.9,2.5,10.6,7.6,14.2
						c5,3.5,13.5,5.3,25.3,5.3c119.6,0,187.7,0,204.4,0c12.8,0,21.5-1.3,26.2-4c4.7-2.7,7.1-7.8,7.1-15.4l-0.1-92.2l0-36.4
						c0-5.1-2.8-9.4-8.4-12.7c-5.6-3.4-14.4-5.1-26.3-5.1c-118.6,0-186.3,0-203.1,0c-12.8,0-21.4,1.3-26,3.8
						c-4.6,2.6-6.8,7.2-6.8,13.9L2462.6,240.7z M2361.6,99.5c0-12.9,1.6-23.9,5-32.8c3.3-8.9,9.6-17,18.7-24.3
						c8.2-6.7,17-11.9,26.5-15.6c9.4-3.6,21.6-6.3,36.5-8.1c14.9-1.8,33-2.9,54.3-3.4c21.3-0.5,52.5-0.8,93.5-0.8s72.4,0.3,94,0.8
						c21.6,0.5,39.8,1.7,54.6,3.4c14.8,1.8,27.1,4.4,37,8.1c9.9,3.6,18.8,8.8,26.7,15.6c9.1,7.3,15.4,15.4,18.7,24.3
						c3.4,8.9,5,19.8,5.1,32.8c0,30.7,0.1,67,0.1,108.8l0,46.1c0,12.9-1.6,23.7-5,32.2c-3.3,8.5-9.6,16.4-18.7,23.7
						c-7.9,7-16.6,12.4-26.2,16.2c-9.6,3.8-21.6,6.5-36,8.1c-14.4,1.6-32,2.6-52.7,3c-20.7,0.4-52.6,0.6-95.8,0.6
						c-43.2,0-75.1-0.2-95.8-0.6c-20.7-0.4-38.4-1.4-53.2-3c-14.8-1.6-27-4.3-36.7-8.1c-9.8-3.8-18.6-9.2-26.5-16.2
						c-9.1-7.3-15.4-15.2-18.7-23.7s-5-19.2-5.1-32.2L2361.6,99.5z M2175.1,190.5h-160.6l215.7-173.1h124.1l-146.4,112.8v1.6
						c21.3,0,39,1.9,53.2,5.7c14.1,3.8,25.5,9.7,34,17.8c8.5,8.1,14.8,18.7,18.7,32c4,13.2,6,29.5,6,48.9c0,19.4-2.5,35.5-7.5,48.1
						c-5,12.7-12.8,22.7-23.5,30.1c-10.6,7.4-24.3,12.7-41.1,16c-16.7,3.2-37.7,4.9-63,4.9h-297.5l-0.3-317.9h111.8l0.2,238.6h177.5
						c11,0,20.5-3,28.8-9.1c8.2-6.1,12.3-13.8,12.3-23.3c0-10.8-4.3-19-12.8-24.7C2196.2,193.4,2186.3,190.5,2175.1,190.5z
						 M2871.4,151.3c0-29.7-0.1-45-0.1-46.1c0-28.8,9.5-50.7,28.5-65.5c19-14.8,48.3-22.3,87.8-22.3c61.8,0,164.6,0,308.5,0
						l0.1,76.8c-180.7,0-279.4,0-296.2,0c-10.9,0-18.9,1.8-23.9,5.3c-5,3.5-7.5,8.2-7.5,14.2l-1.4,25.1l0.1,75.2l1.4,26.3
						c0,4.9,2.6,8.9,7.8,12.1c5.2,3.2,13.1,4.8,23.7,4.8c16.7,0,115.4,0,296.1,0l0.1,78.1c-143.9,0-246.7,0-308.5,0
						c-39.6,0-68.8-7.4-87.9-22.2c-19-14.8-28.6-36.8-28.6-65.9c0-0.8,0-16,0-45.7L2871.4,151.3z M3969.9,254.4l69.3-114.5h-138.7
						L3969.9,254.4z M4080.1,71.6l32.8-54.2H4237l-194.5,317.9h-143.3l-197-317.9h124.1l33.4,54.2L4080.1,71.6"/>
				</g>
			</g>
		</g>
		<path id="path54" class="st5" d="M277.1,367c44.1,0,79.9-35.8,79.9-79.9c0-44.1-35.8-79.9-79.9-79.9c-44.1,0-79.9,35.8-79.9,79.9
			C197.1,331.2,232.9,367,277.1,367"/>
		<path id="path56" class="st6" d="M277.1,545.2c44.1,0,79.9-35.8,79.9-79.9c0-44.1-35.8-79.9-79.9-79.9
			c-44.1,0-79.9,35.8-79.9,79.9C197.1,509.4,232.9,545.2,277.1,545.2"/>
		<path id="path58" class="st7" d="M277.1,723.5c44.1,0,79.9-35.8,79.9-79.9s-35.8-79.9-79.9-79.9c-44.1,0-79.9,35.8-79.9,79.9
			S232.9,723.5,277.1,723.5"/>
		<path id="path60" class="st5" d="M688.9,367c44.1,0,79.9-35.8,79.9-79.9c0-44.1-35.8-79.9-79.9-79.9c-44.1,0-79.9,35.8-79.9,79.9
			C609,331.2,644.8,367,688.9,367"/>
		<path id="path62" class="st6" d="M483,545.2c44.1,0,79.9-35.8,79.9-79.9c0-44.1-35.8-79.9-79.9-79.9c-44.1,0-79.9,35.8-79.9,79.9
			C403.1,509.4,438.9,545.2,483,545.2"/>
		<path id="path64" class="st6" d="M688.9,545.2c44.1,0,79.9-35.8,79.9-79.9c0-44.1-35.8-79.9-79.9-79.9
			c-44.1,0-79.9,35.8-79.9,79.9C609,509.4,644.8,545.2,688.9,545.2"/>
		<path id="path66" class="st5" d="M688.9,723.5c44.1,0,79.9-35.8,79.9-79.9s-35.8-79.9-79.9-79.9c-44.1,0-79.9,35.8-79.9,79.9
			S644.8,723.5,688.9,723.5"/>
		<path id="path68" class="st7" d="M483,367c44.1,0,79.9-35.8,79.9-79.9c0-44.1-35.8-79.9-79.9-79.9c-44.1,0-79.9,35.8-79.9,79.9
			C403.1,331.2,438.9,367,483,367"/>
	</g>
</g>
</svg>
