<svg width="327.43" height="100.675" viewBox="0 0 327.43 100.675" xmlns="http://www.w3.org/2000/svg">
  <g>
    <g>
      <path style="fill: #c4000b;"
        d="m0.952,93.504986a6.982,6.982 0 0 1 6.872,-7.172a5.7,5.7 0 0 1 4.39,1.881l0,-8.807l3.545,0l0,21l-3.3,0l-0.081,-1.773a5.719,5.719 0 0 1 -4.554,2.045a6.964,6.964 0 0 1 -6.872,-7.174zm11.4,0a3.929,3.929 0 0 0 -3.926,-4.009a3.912,3.912 0 0 0 -3.927,4.009a3.935,3.935 0 0 0 3.927,4.035a3.952,3.952 0 0 0 3.924,-4.035l0.002,0z" />
      <path style="fill: #c4000b;"
        d="m18.537,93.530986a7.114,7.114 0 0 1 7.28,-7.144a7.124,7.124 0 0 1 7.254,7.144a7.123,7.123 0 0 1 -7.254,7.144a7.113,7.113 0 0 1 -7.28,-7.144zm11.1,0a3.817,3.817 0 0 0 -3.818,-3.844a3.835,3.835 0 0 0 -3.9,3.844a3.857,3.857 0 0 0 3.9,3.872a3.84,3.84 0 0 0 3.816,-3.872l0.002,0z" />
      <path style="fill: #c4000b;"
        d="m39.231,98.629986l-0.082,1.773l-3.3,0l0,-21l3.542,0l0,8.807a5.7,5.7 0 0 1 4.39,-1.881a6.981,6.981 0 0 1 6.871,7.172a6.963,6.963 0 0 1 -6.871,7.17a5.719,5.719 0 0 1 -4.55,-2.041zm7.88,-5.125a3.912,3.912 0 0 0 -3.926,-4.009a3.929,3.929 0 0 0 -3.926,4.009a3.952,3.952 0 0 0 3.926,4.035a3.935,3.935 0 0 0 3.926,-4.035z" />
      <path style="fill: #c4000b;"
        d="m56.953,94.321986l0,6.081l-3.518,0l0,-13.743l3.518,0l0,1.936a4.033,4.033 0 0 1 3.708,-2.209a2.888,2.888 0 0 1 0.491,0.028l0,3.463c-2.099,-0.409 -4.199,0.436 -4.199,4.444z" />
      <path style="fill: #c4000b;"
        d="m76.666,94.158986l-10.825,0a3.872,3.872 0 0 0 3.872,3.654a3.991,3.991 0 0 0 3.517,-1.991l2.836,1.173a6.8,6.8 0 0 1 -6.326,3.68a7.053,7.053 0 0 1 -7.362,-7.144a7.058,7.058 0 0 1 7.253,-7.144a6.834,6.834 0 0 1 7.062,7.008l-0.027,0.764zm-10.444,-3.464l6.735,0a3.367,3.367 0 0 0 -3.272,-2.263a3.594,3.594 0 0 0 -3.494,3.027l0.031,-0.764z" />
      <path style="fill: #c4000b;"
        d="m90.624,94.321986l0,6.081l-3.518,0l0,-13.743l3.518,0l0,1.936a4.033,4.033 0 0 1 3.708,-2.209a2.888,2.888 0 0 1 0.491,0.028l0,3.463c-2.1,-0.409 -4.199,0.436 -4.199,4.444z" />
      <path style="fill: #c4000b;"
        d="m96.048,93.504986a7,7 0 0 1 6.79,-7.172a5.657,5.657 0 0 1 4.471,1.881l0,-1.554l3.545,0l0,13.743l-3.3,0l-0.081,-1.773a5.693,5.693 0 0 1 -4.635,2.045a6.984,6.984 0 0 1 -6.79,-7.17zm11.371,0a3.887,3.887 0 0 0 -3.9,-3.927a3.892,3.892 0 0 0 -3.926,3.927a3.915,3.915 0 0 0 3.926,3.953a3.91,3.91 0 0 0 3.9,-3.953z" />
      <path style="fill: #c4000b;"
        d="m113.142,93.504986a6.982,6.982 0 0 1 6.872,-7.172a5.693,5.693 0 0 1 4.39,1.881l0,-8.807l3.545,0l0,21l-3.3,0l-0.081,-1.773a5.719,5.719 0 0 1 -4.554,2.045a6.965,6.965 0 0 1 -6.872,-7.174zm11.4,0a3.929,3.929 0 0 0 -3.927,-4.009a3.912,3.912 0 0 0 -3.927,4.009a3.935,3.935 0 0 0 3.927,4.035a3.952,3.952 0 0 0 3.926,-4.035l0.001,0z" />
      <path style="fill: #c4000b;"
        d="m131.301,82.187986a2.065,2.065 0 0 1 2.072,-2.045a2.049,2.049 0 0 1 2.072,2.045a2.049,2.049 0 0 1 -2.072,2.046a2.066,2.066 0 0 1 -2.072,-2.046zm0.327,4.472l3.49,0l0,13.743l-3.49,0l0,-13.743z" />
      <path style="fill: #c4000b;"
        d="m137.953,93.530986a7.114,7.114 0 0 1 7.28,-7.144a7.124,7.124 0 0 1 7.254,7.144a7.123,7.123 0 0 1 -7.254,7.144a7.113,7.113 0 0 1 -7.28,-7.144zm11.1,0a3.817,3.817 0 0 0 -3.818,-3.844a3.835,3.835 0 0 0 -3.9,3.844a3.857,3.857 0 0 0 3.9,3.872a3.84,3.84 0 0 0 3.816,-3.872l0.002,0z" />
    </g>
  </g>
  <rect x="0" y="54.201965" style="fill: #00427b;" height="11.009" width="46.957" />
  <rect x="0" y="27.101013" style="fill: #0071b8;" height="11.009" width="32.523" />
  <rect x="0" y="0" style="fill: #00a2e1;" height="11.009" width="46.957" />
  <path style="fill: #00427b;"
    d="m70.174,-0.000014l31,42.852l31,-42.852l0,66.9l-10.931,0l0,-33.452l-20.073,27.7l-19.987,-27.7l0,33.454l-11.009,0l0,-66.902z" />
  <path style="fill: #00427b;"
    d="m230.491,1.699986l0,42.683a12.22,12.22 0 0 0 12.363,12.365a12.22,12.22 0 0 0 12.365,-12.366l0,-42.683l11.009,0l0,42.683a23.312,23.312 0 0 1 -23.374,23.375a23.312,23.312 0 0 1 -23.375,-23.375l0,-42.683l11.012,0.001z" />
  <path style="fill: #00427b;"
    d="m286.018,52.767986l9.994,-4.49a10.994,10.994 0 0 0 10.84,8.554c5.757,0 9.569,-3.98 9.569,-9.23c0,-13.044 -26.932,-9.654 -26.932,-29.473c0,-10.755 7.96,-17.276 17.785,-17.276c8.469,0 15.246,4.91 17.7,12.2l-9.908,4.573c-0.932,-4.065 -3.642,-6.437 -7.539,-6.437c-4.234,0 -7.114,2.8 -7.114,6.606c0,11.6 27.016,8.807 27.016,29.981c0,12.026 -8.807,19.987 -20.241,19.987c-10.161,-0.005 -18.546,-6.272 -21.17,-14.995z" />
  <path style="fill: #00427b;"
    d="m177.164,0.005986l-29.642,66.9l12.449,0l17.193,-42.007l17.193,42.007l12.449,0l-29.642,-66.9z" />
  <rect x="0" y="40.651978" style="fill: #005393;" height="11.009" width="11.009" />
  <rect x="0" y="24.55896" style="fill: #008ed9;" transform="rotate(-90 6.394884621840903e-14,24.558959960937504) "
    height="21.514" width="11.009" />
</svg>