<svg xmlns="http://www.w3.org/2000/svg" xmlns:xlink="http://www.w3.org/1999/xlink" viewBox="0 0 671.78 257.32"><defs><style>.cls-1{fill:none;}.cls-2{clip-path:url(#clip-path);}.cls-3,.cls-5{fill:#fff;}.cls-4{fill:#ffcc03;}.cls-5{fill-rule:evenodd;}</style><clipPath id="clip-path" transform="translate(-51.47 -4.74)"><rect class="cls-1" width="768.88" height="231.64"/></clipPath></defs><g id="Warstwa_2" data-name="Warstwa 2"><g id="Warstwa_1-2" data-name="Warstwa 1"><g id="radom"><g id="radom-2" data-name="radom"><g id="logotyp"><g id="rekord"><g class="cls-2"><path class="cls-3" d="M622.07,138.8a35.48,35.48,0,1,1,35.48,35.38,35.16,35.16,0,0,1-35.48-35.38M694.29,200l29-2.81V37.51l-30.66,3.68V89.12a57.77,57.77,0,0,0-36.44-12.4c-35,0-60.6,29.65-60.6,62.08s25.59,62.11,60.6,62.11c16.89,0,25.34-4.18,38.14-16.37V200ZM561.54,77.64l-29,2.75V199.07l30.66-1.87V141.09c0-20.23,10.37-33.33,33.78-33.33l10.63-31c-21.24.23-35,3.91-45.63,22.07h-.48V77.64ZM254.69,199.07l30.65-1.87V137.64h.49l51.65,61.43,30.42-8.76L319.62,136v-2.53l46.11-48L338.45,73.74l-53.11,59.77v-96l-30.65,3.68V199.07ZM149.57,141.8a44.17,44.17,0,0,1-.48-7.82,36.7,36.7,0,0,1,36.47-32.88c8.2,0,15.68,2.08,21.47,7.58Zm76,18.6c-12.79,8-24.38,13.78-40.06,13.78-14.73,0-21.49-6.87-23.91-11.71l84-49.68a65.31,65.31,0,0,0-58.42-36.07c-36.19,0-68.06,26.88-68.06,62.07S151,200.9,187.22,200.9a94.55,94.55,0,0,0,51.42-15.44ZM80.43,77.64l-29,2.75V199.07l30.65-1.87V141.09c0-20.23,10.38-33.33,33.8-33.33l10.63-31c-21.25.23-35,3.91-45.62,22.07h-.49V77.64Z" transform="translate(-51.47 -4.74)"/></g></g><g id="sloneczko"><path class="cls-4" d="M492.19,141.9l1.81-2.76c.22-2.32,3.7-6.4,2.12-9.19-4.66-5.69-6.09-13.14-8.17-20.34-4.43-10.94-17.57-18.28-29.86-18.48-5.28.41-11.26,1.93-13.57,6.7-9.06,1.25-17.62,4-24.07,10.17-10.14,9.36-9.52,24.95-4.86,37.08,3,10.51,13.39,20.24,25.26,21.59C462.45,169.17,479.9,157.53,492.19,141.9Zm-61.91-11.65c.56-2.58-.33-6.18,1.74-8.32,5.45-8.61,17.87-6.63,25.2-12.42,1-1.09.87-2.56,1.59-3.68,12.26.5,11.85,14.24,17.55,21.78,1.32,5.4-2.43,9.17-6.46,12.62-7.07,6.11-15.79,13.54-25.87,9.71C435,147.68,431.3,138.55,430.28,130.25Z" transform="translate(-51.47 -4.74)"/><path class="cls-4" d="M398.51,151.4c-8.54,2.46-13.31,4.53-20.62,10-.27-.33-3,2.23-3,1.93-6.05,8.53-16.37,23-2.26,29.38,13.06,3.66,16.6.79,16.89.34s5.19-5.7,8.57-8.91l13.65-13.74-12.57-19.83C399.14,150.9,398.74,151.21,398.51,151.4Z" transform="translate(-51.47 -4.74)"/><path class="cls-4" d="M398.93,150.27l.22.34A.35.35,0,0,0,398.93,150.27Z" transform="translate(-51.47 -4.74)"/><path class="cls-4" d="M456.67,179.89c-1.92-2.5-5.24-3.1-8.07-2.46-1.83-.16-4,.23-5.48-.49-10.76-.08-10,11.41-12.83,17.91-2.84,3.85-1.17,8.68-.32,12.57a9.84,9.84,0,0,0,7.73,6c5.66-1.26,12.26.51,16.31-3.23a11.44,11.44,0,0,0,4.83-11.59C457.91,192.32,459.51,185.44,456.67,179.89Z" transform="translate(-51.47 -4.74)"/><path class="cls-4" d="M391.5,141.39a6.4,6.4,0,0,0,2.92-7.92c.2-2-.54-3.87.2-5.26-.52-10.3-15.45-8.71-24.51-10.4-4.95-2.78-11.66-.45-17,.55-3.86,1.71-6.92,4.67-7.22,7.85,1.65,5.15.09,11.72,5.29,15.13,3.62,3.84,9.66,4.95,15.61,3.73C375.29,143.48,384.42,144.59,391.5,141.39Z" transform="translate(-51.47 -4.74)"/><path class="cls-4" d="M502.57,177.15c-4-3-2.55-8.43-5.62-11.65-2.5-2.84-4.95-6-9.34-5.22a5,5,0,0,0-2.83,3.85c-4.14,1.38-8.22,2.2-10.71,5.78-2.16,3-.47,7.87,1.08,11l6.72,12.9c2.66,4.35,5.52,9.57,11.23,11,3.92.93,7.49-1.08,10.44-2.88,2.18-3.34,6.64-5,8.27-9C513.09,186,506.72,181.91,502.57,177.15Z" transform="translate(-51.47 -4.74)"/><path class="cls-4" d="M545.41,126.55c-8.89-1.34-16.4-2.52-26.33-2.24-7.13-.25-12.87-.34-16.4,13a13.35,13.35,0,0,0,3.89,9.83c8.5.43,16.65,5.5,25.2,8.28,6.83,1.09,14.41,1.41,20.61-4.6,2-2.68,2.55-6.42,2.1-9.73A17,17,0,0,0,545.41,126.55Z" transform="translate(-51.47 -4.74)"/><path class="cls-4" d="M498.9,102.59c6,2.21,13,.59,18.74-.38a38.8,38.8,0,0,0,6.85-.65c1.11-.16,2.15.17,3.59-.68.24.26,6-2.67,7.68-3.51,6.83-3.08,11.48-6.11,14-12.72,1.58-4.77-1.51-8.92-4.68-12.36-2.91-5.88-11.82-6.12-16.58-2.13-7.31,7.67-15.95,15.26-26.08,18.8-3,2.93-5.27,6.39-5.67,10.26A5,5,0,0,0,498.9,102.59Z" transform="translate(-51.47 -4.74)"/><path class="cls-4" d="M361.11,96.81c12.33,2.85,25.16,6.91,34.86,14.52,4.83,1,9.71,1.45,14.52-.48a5.17,5.17,0,0,0,2.22-3.89c-.56-6.78-5.85-12.53-10.26-17.61a25.78,25.78,0,0,0-4.32-6.25c-.83-.95-1-2.13-2.5-2.85,0-.29-6-4.35-8.08-5.4-6.92-4.72-12.8-7.59-21.52-6.31-6,1.22-9.22,6.21-11.27,11.29C349.56,85.82,354.23,94.73,361.11,96.81Z" transform="translate(-51.47 -4.74)"/><path class="cls-4" d="M411.41,73.14c3.67,6.48,7.25,13.82,14.56,17.7,4.35,2.73,9.27-.35,13.9-.52,1-.79,2-1.58,1.84-3.06a156.3,156.3,0,0,1-5-30.34c-1.65-8.35-3.29-16.69-8.81-23-3.74-2.69-8.38-2.5-12.73-2-4.91-.13-10.67-.95-14.39,2.54-3,5.29,0,12,1,18C408.64,57.37,408.07,66.41,411.41,73.14Z" transform="translate(-51.47 -4.74)"/><path class="cls-4" d="M468.44,80.84c3.43,1.59,8,1.5,11.06-.75,5.16-5.87,5.11-13.47,7-20.41.5-8.06,5.47-14.7,8.71-22,1.41-3.94,1.38-9.25-1.9-12.35-5.34-5.82-13-3-20.1-1.1-.33.73-1.83.35-2.37.8a7.26,7.26,0,0,0-4.27,1.88c-2.2,1.57-2,4.64-2.2,6.89.89,6.93,1,13.54-.31,19.75-.35,3.78-2.2,7.15-3.32,10.85C460.19,70.71,462.6,77.76,468.44,80.84Z" transform="translate(-51.47 -4.74)"/></g><g id="radio"><path class="cls-5" d="M57.13,29.43V24.27l-5.66.92V56.1h6V40.18C57.42,33.32,61,30,67.88,30V24.2C62.79,24.2,59.25,26,57.13,29.43Zm38.76,5c0-6.57-4.1-10.33-12-10.33a23.07,23.07,0,0,0-7.14,1.13l-1,5.16A23.12,23.12,0,0,1,83.36,29c5,0,6.72,2,6.72,5.94v1.7a11.55,11.55,0,1,0-7.43,20.23A12,12,0,0,0,90.5,54l.21,2.06h5.45l-.29-6V34.45ZM83.51,52.06a6.69,6.69,0,1,1,0-13.37,6.69,6.69,0,1,1,0,13.37Zm46.76-23A14.19,14.19,0,0,0,119.16,24a16.16,16.16,0,0,0-16,16.42,16.11,16.11,0,0,0,16,16.41,14.23,14.23,0,0,0,11.25-5.24v4.54h5.79V4.74l-5.94,1V29.08ZM119.87,51.5a10.79,10.79,0,0,1-10.76-11.1,10.79,10.79,0,1,1,21.58,0A10.85,10.85,0,0,1,119.87,51.5Zm26.88,4.6h5.94V24.2l-5.94,1.06Zm3-47.18a4,4,0,1,0,4,4A4,4,0,0,0,149.71,8.92ZM177.51,24a16.45,16.45,0,1,0,16.83,16.49A16.44,16.44,0,0,0,177.51,24Zm0,27.52a10.75,10.75,0,0,1-10.82-11.1,10.86,10.86,0,1,1,21.71,0A10.82,10.82,0,0,1,177.51,51.5Z" transform="translate(-51.47 -4.74)"/></g></g><g id="radom-3" data-name="radom"><path class="cls-3" d="M517.68,24.29V56.91h-4.84V32.13l-6.12,3.53L505.91,31Z" transform="translate(-51.47 -4.74)"/><path class="cls-3" d="M523.8,41.05c0-9.1,4.44-16.35,12.05-16.35s12,7.25,12,16.35-4.44,16.36-12,16.36S523.8,50.15,523.8,41.05Zm19.08,0c0-6.29-2.18-11.82-7-11.82s-7.07,5.53-7.07,11.82,2.18,11.83,7.07,11.83S542.88,47.35,542.88,41.05Z" transform="translate(-51.47 -4.74)"/><path class="cls-3" d="M574.41,46.71A10.77,10.77,0,0,1,563.35,57.4c-6.35,0-11.06-4.94-11.06-11.59,0-8.38,7.06-17,15.5-21.52L570.6,28c-4.17,2.31-8.83,5.62-11.6,10.19a9.63,9.63,0,0,1,5.48-1.67A10,10,0,0,1,574.41,46.71Zm-4.85,0a6.21,6.21,0,0,0-12.41,0,6.21,6.21,0,1,0,12.41,0Z" transform="translate(-51.47 -4.74)"/><path class="cls-3" d="M578.31,54.05a3.34,3.34,0,0,1,3.39-3.31,3.29,3.29,0,1,1-3.39,3.31Z" transform="translate(-51.47 -4.74)"/><path class="cls-3" d="M598.87,52.42H610l-.77,4.48H589.59l10.73-13c3.67-4.48,4.89-7,4.89-9.33a5.28,5.28,0,0,0-5.39-5.48,5.33,5.33,0,0,0-5.39,5.43,8.09,8.09,0,0,0,1,3.63l-4.75.72a9.79,9.79,0,0,1-1-4.44,9.91,9.91,0,0,1,10.19-9.83c5.71,0,10.24,4.13,10.24,9.88,0,3.36-1.55,6.56-6.3,12Z" transform="translate(-51.47 -4.74)"/><path class="cls-3" d="M630.77,39.37h10.06v4.48H630.77v13h-4.84V25.19h16.48l.77,4.48H630.77Z" transform="translate(-51.47 -4.74)"/><path class="cls-3" d="M676.16,56.9l-1.77-18.71L663.61,57.48l-10.78-19.2L651.07,56.9h-4.9l3.36-33.43,14.09,25.09,14-25.09L681,56.9Z" transform="translate(-51.47 -4.74)"/><path class="cls-3" d="M67.94,261.16,55.44,248v13.19h-1.5V229.44h5.17c6.08,0,10.33,3.94,10.33,9.42s-4.26,9.38-10.28,9.38H57.61l12.33,12.91h-2Zm-12.5-14.23h3.67c5.21,0,8.79-3.4,8.79-8.07s-3.57-8-8.79-8H55.44Z" transform="translate(-51.47 -4.74)"/><path class="cls-3" d="M103.06,245.3a16.38,16.38,0,1,1,16.35,16.31A16.16,16.16,0,0,1,103.06,245.3Zm31.21,0a14.84,14.84,0,1,0-14.86,14.9A14.74,14.74,0,0,0,134.27,245.3Z" transform="translate(-51.47 -4.74)"/><path class="cls-3" d="M171.38,229.44h4.48c9.47,0,16.53,6.8,16.53,15.86s-7.06,15.86-16.53,15.86h-4.48Zm4.48,30.31c8.61,0,15-6.2,15-14.45s-6.39-14.45-15-14.45h-3v28.9Z" transform="translate(-51.47 -4.74)"/><path class="cls-3" d="M226.92,259.75h21.84l-.27,1.41H224.12l22.24-30.31H225.21l.31-1.41h23.61Z" transform="translate(-51.47 -4.74)"/><path class="cls-3" d="M284.64,229.67l1.5-.45v31.94h-1.5Z" transform="translate(-51.47 -4.74)"/><path class="cls-3" d="M355.59,261.16,353,233.34l-13.32,28.72-13.27-28.72-2.58,27.82h-1.5L325.46,228l14.27,30.81L354,228l3.13,33.17Z" transform="translate(-51.47 -4.74)"/><path class="cls-3" d="M409.73,259.75l-.27,1.41h-16.4V229.44H409l.32,1.41H394.56v13H407v1.41H394.56v14.45Z" transform="translate(-51.47 -4.74)"/><path class="cls-3" d="M497.08,261.16,484.58,248v13.19h-1.5V229.44h5.16c6.08,0,10.33,3.94,10.33,9.42s-4.26,9.38-10.28,9.38h-1.55l12.33,12.91h-2Zm-12.5-14.23h3.67c5.21,0,8.78-3.4,8.78-8.07s-3.57-8-8.78-8h-3.67v16.08Z" transform="translate(-51.47 -4.74)"/><path class="cls-3" d="M552.62,247.47H538.94L533,261.16h-1.63l14.41-32.85,14.41,32.85h-1.63Zm-.58-1.4-6.25-14.36-6.21,14.36Z" transform="translate(-51.47 -4.74)"/><path class="cls-3" d="M594,229.44h4.48c9.47,0,16.53,6.8,16.53,15.86s-7.06,15.86-16.53,15.86H594Zm4.48,30.31c8.61,0,15-6.2,15-14.45s-6.39-14.45-15-14.45h-3v28.9Z" transform="translate(-51.47 -4.74)"/><path class="cls-3" d="M650.85,229.67l1.5-.45v31.94h-1.5Z" transform="translate(-51.47 -4.74)"/><path class="cls-3" d="M688.13,245.3a16.38,16.38,0,1,1,16.36,16.31A16.17,16.17,0,0,1,688.13,245.3Zm31.22,0a14.84,14.84,0,1,0-14.86,14.9A14.74,14.74,0,0,0,719.35,245.3Z" transform="translate(-51.47 -4.74)"/></g></g></g></g></g></svg>