<?xml version="1.0" encoding="UTF-8"?>
<svg id="Warstwa_1" data-name="Warstwa 1" xmlns="http://www.w3.org/2000/svg" viewBox="0 0 490.98 188.1">
  <defs>
    <style>
      .cls-1 {
        fill-rule: evenodd;
      }

      .cls-1, .cls-2, .cls-3 {
        stroke-width: 0px;
      }

      .cls-1, .cls-3 {
        fill: #fff;
      }

      .cls-2 {
        fill: #ffcc03;
      }
    </style>
  </defs>
  <g id="logotyp">
    <g id="rekord">
      <path class="cls-3" d="M417.03,97.98c-.04-14.32,11.53-25.97,25.85-26.01s25.97,11.53,26.01,25.85c.04,14.32-11.53,25.97-25.85,26.01-.03,0-.05,0-.08,0-14.19.13-25.8-11.26-25.93-25.45,0-.13,0-.27,0-.4M469.81,142.71l21.17-2.06V23.95l-22.41,2.69v35c-7.58-5.98-16.98-9.18-26.63-9.06-25.59,0-44.29,21.66-44.29,45.37s18.7,45.39,44.29,45.39c12.34,0,18.52-3.06,27.87-12v11.37ZM372.81,53.27l-21.17,2v86.73l22.41-1.36v-41c0-14.79,7.58-24.36,24.69-24.36l7.77-22.68c-15.52.16-25.59,2.85-33.35,16.13h-.35v-15.46h0ZM148.53,142.02l22.4-1.36v-43.54h.36l37.75,44.9,22.23-6.4-35.29-39.66v-1.85l33.7-35.12-19.94-8.57-38.81,43.69V23.95l-22.4,2.69v115.38h0ZM71.7,100.17c-.29-1.89-.4-3.81-.35-5.72,1.44-13.64,12.94-23.99,26.65-24,6,0,11.46,1.52,15.69,5.54l-41.99,24.18ZM127.27,113.76c-9.35,5.88-17.82,10.07-29.28,10.07-10.76,0-15.7-5-17.47-8.55l61.39-36.31c-8.09-16.16-24.61-26.37-42.69-26.37-26.46,0-49.75,19.65-49.75,45.37s23.29,45.39,49.75,45.39c13.35-.05,26.41-3.97,37.58-11.28l-9.53-18.32ZM21.17,53.27L0,55.27v86.73l22.38-1.34v-41c0-14.79,7.58-24.36,24.7-24.36l7.77-22.68c-15.47.15-25.56,2.84-33.32,16.12h-.36v-15.47Z"/>
    </g>
    <g id="sloneczko">
      <path class="cls-2" d="M322.1,100.24l1.33-2c.16-1.7,2.7-4.69,1.55-6.72-3.41-4.16-4.45-9.61-6-14.87-3.24-8-12.85-13.36-21.83-13.51-3.86.3-8.23,1.42-9.92,4.9-6.61.92-12.87,2.93-17.59,7.44-7.4,6.84-7,18.23-3.55,27.09,2.17,7.69,9.79,14.8,18.47,15.78,15.82,1.82,28.56-6.69,37.54-18.11ZM276.86,91.73c.41-1.89-.24-4.52,1.27-6.09,4-6.29,13.06-4.84,18.42-9.07.75-.8.63-1.87,1.16-2.69,9,.36,8.66,10.41,12.83,15.92,1,3.94-1.78,6.7-4.73,9.22-5.16,4.46-11.53,9.9-18.91,7.1-6.58-1.66-9.29-8.33-10.04-14.39Z"/>
      <path class="cls-2" d="M253.64,107.18c-6.24,1.8-9.73,3.31-15.07,7.34-.2-.24-2.23,1.63-2.21,1.41-4.42,6.24-12,16.83-1.65,21.48,9.55,2.67,12.13.57,12.34.24s3.79-4.16,6.27-6.51l10-10-9.19-14.49c-.03.17-.33.4-.49.53Z"/>
      <path class="cls-2" d="M253.95,106.36l.15.25c.02-.08-.02-.18-.15-.25Z"/>
      <path class="cls-2" d="M296.14,128.01c-1.45-1.69-3.74-2.4-5.89-1.8-1.34-.12-2.94.17-4-.36-7.86-.06-7.34,8.34-9.38,13.09-2.07,2.81-.85,6.35-.23,9.18.96,2.37,3.11,4.05,5.64,4.41,4.14-.92,9,.38,11.92-2.36,2.76-1.87,4.15-5.2,3.53-8.47-.68-4.61.49-9.64-1.59-13.69Z"/>
      <path class="cls-2" d="M248.51,99.87c2.07-1.12,2.98-3.6,2.14-5.79.15-1.49-.39-2.83.15-3.85-.39-7.53-11.29-6.36-17.92-7.59-3.62-2-8.52-.33-12.41.4-2.82,1.25-5.06,3.41-5.28,5.73,1.21,3.77.07,8.57,3.87,11.06,2.65,2.81,7.06,3.62,11.41,2.73,6.2-1.16,12.91-.35,18.04-2.69Z"/>
      <path class="cls-2" d="M329.69,126c-2.93-2.19-1.86-6.16-4.11-8.51-1.82-2.08-3.62-4.38-6.82-3.82-1.12.53-1.9,1.59-2.07,2.82-3,1-6,1.6-7.83,4.22-1.57,2.22-.34,5.76.79,8l4.91,9.42c1.95,3.18,4,7,8.21,8,2.87.68,5.48-.79,7.63-2.1,1.59-2.44,4.86-3.64,6-6.54.98-5.03-3.67-7.96-6.71-11.49Z"/>
      <path class="cls-2" d="M361,89.02c-6.49-1-12-1.84-19.24-1.63-5.21-.19-9.41-.25-12,9.51-.08,2.68.95,5.28,2.84,7.18,6.22.31,12.17,4,18.42,6,5,.79,10.53,1,15.07-3.36,1.41-2.08,1.96-4.63,1.53-7.11-.14-4.46-2.67-8.51-6.62-10.59Z"/>
      <path class="cls-2" d="M327.01,71.53c4.39,1.61,9.47.43,13.7-.28,1.68,0,3.35-.17,5-.47.9.06,1.81-.12,2.63-.5.17.19,4.36-2,5.61-2.56,5-2.26,8.39-4.47,10.27-9.3,1.15-3.49-1.1-6.52-3.42-9-2.13-4.3-8.64-4.47-12.12-1.55-5.3,5.55-11.66,11.09-19.06,13.66-2.22,1.94-3.68,4.59-4.14,7.5.14,1.01.69,1.92,1.53,2.5Z"/>
      <path class="cls-2" d="M226.3,67.28c9,2.09,18.39,5.06,25.48,10.62,3.53.74,7.1,1.06,10.61-.35.95-.66,1.54-1.7,1.63-2.85-.42-5-4.28-9.15-7.51-12.86-.81-1.67-1.86-3.21-3.13-4.57-.61-.7-.75-1.56-1.83-2.09-1.85-1.48-3.83-2.8-5.9-3.95-5.06-3.44-9.35-5.54-15.73-4.61-4.36.9-6.74,4.54-8.23,8.26-3.83,4.37-.42,10.88,4.61,12.4Z"/>
      <path class="cls-2" d="M263.06,49.98c2.69,4.74,5.31,10.11,10.65,12.94,3.18,2,6.77-.25,10.15-.38.73-.58,1.47-1.15,1.35-2.23-1.95-7.25-3.18-14.68-3.68-22.18-1.2-6.1-2.4-12.2-6.43-16.84-2.74-2-6.13-1.82-9.31-1.47-3.59-.1-7.8-.7-10.52,1.86-2.18,3.86,0,8.77.74,13.13,5.03,3.65,4.61,10.25,7.05,15.17Z"/>
      <path class="cls-2" d="M304.74,55.61c2.61,1.24,5.67,1.03,8.09-.55,3.77-4.29,3.73-9.84,5.15-14.91.36-5.89,4-10.74,6.36-16.08,1-2.88,1-6.76-1.38-9-3.91-4.25-9.52-2.17-14.7-.8-.24.54-1.33.25-1.73.58-1.17.09-2.27.56-3.15,1.34-1.61,1.15-1.44,3.4-1.61,5.05.75,4.79.67,9.67-.23,14.43-.25,2.76-1.6,5.22-2.42,7.93-.4,4.61,1.36,9.76,5.62,12.01Z"/>
    </g>
    <g id="radio">
      <path class="cls-1" d="M4.14,18.04v-3.77l-4.14.67v22.59h4.38v-11.63c0-5,2.63-7.45,7.64-7.45v-4.24c-3.75,0-6.34,1.32-7.88,3.83ZM32.46,21.71c0-4.81-3-7.55-8.79-7.55-1.77,0-3.53.28-5.22.83l-.72,3.77c1.79-.65,3.68-.99,5.58-1,3.67,0,4.91,1.45,4.91,4.35v1.24c-3.5-3.08-8.84-2.75-11.93.76-3.08,3.5-2.75,8.84.76,11.93,1.58,1.39,3.63,2.15,5.74,2.11,2.1.02,4.13-.72,5.73-2.07l.16,1.46h4l-.21-4.35v-11.47h-.01ZM23.38,34.58c-2.7.12-4.98-1.97-5.11-4.66-.12-2.7,1.97-4.98,4.66-5.11.15,0,.29,0,.44,0,2.7-.12,4.98,1.97,5.11,4.66.12,2.7-1.97,4.98-4.66,5.11-.15,0-.29,0-.44,0ZM57.55,17.78c-2.01-2.4-4.99-3.77-8.12-3.72-6.52.07-11.75,5.4-11.68,11.92,0,.03,0,.05,0,.08-.13,6.5,5.04,11.87,11.54,12,.05,0,.1,0,.14,0,3.18.05,6.21-1.36,8.22-3.83v3.3h4.24V0l-4.35.72v17.06h.01ZM49.95,34.17c-4.35,0-7.87-3.54-7.86-7.9,0-.07,0-.15,0-.22-.16-4.35,3.25-8.01,7.6-8.17,4.35-.16,8.01,3.25,8.17,7.6,0,.19,0,.37,0,.56.1,4.38-3.37,8.02-7.76,8.12-.04,0-.07,0-.11,0h-.04ZM69.63,37.53h4.35V14.21l-4.35.78v22.54ZM71.8,3.05c-1.61.04-2.88,1.39-2.84,3,.04,1.61,1.39,2.88,3,2.84,1.59-.04,2.86-1.36,2.84-2.95,0-1.6-1.31-2.9-2.91-2.89-.03,0-.06,0-.09,0ZM92.11,14.05c-6.63.17-11.86,5.68-11.69,12.31.17,6.63,5.68,11.86,12.31,11.69,6.5-.17,11.69-5.49,11.69-11.99,0-6.63-5.38-12-12.01-11.99-.1,0-.2,0-.3,0h0ZM92.11,34.16c-4.34.03-7.87-3.46-7.9-7.8,0-.11,0-.22,0-.32,0-4.38,3.54-7.93,7.92-7.94,4.38,0,7.93,3.54,7.94,7.92h0c.13,4.38-3.31,8.01-7.67,8.14-.1,0-.2,0-.29,0h0Z"/>
    </g>
    <g>
      <path class="cls-3" d="M0,179.53l.23-1.13c1.67,1.6,3.87,2.74,6.24,2.74,3.37,0,5.67-2.27,5.67-5.34,0-2.57-1.33-4.17-5.07-5.4l-.7-.23c-3.37-1.13-5.64-2.8-5.64-6.17s2.5-5.87,6.14-5.87c1.63,0,3.5.47,5.44,1.73l-.23,1.13c-2-1.4-3.7-1.83-5.17-1.83-3,0-5.07,2.04-5.07,4.87s1.93,4.1,4.9,5.07l.7.23c4.1,1.37,5.8,3.4,5.8,6.44,0,3.67-2.77,6.37-6.77,6.37C3.74,182.13,1.53,180.86,0,179.53ZM3.7,154.24l6.07-4.27.6.9-6.14,4.17-.53-.8Z"/>
      <path class="cls-3" d="M58.61,182.5l-7.77-21.68-7.81,21.68-8.51-24.05h1.17l7.41,20.98,7.74-21.58,7.74,21.58,7.41-20.98h1.13l-8.51,24.05Z"/>
      <path class="cls-3" d="M89.84,158.61l1.1-.33v23.52h-1.1v-23.18Z"/>
      <path class="cls-3" d="M124.9,185.27c0,1.07.77,1.83,1.83,1.83.4,0,.8-.1,1.13-.2v.97c-.37.17-.8.23-1.2.23-1.6,0-2.84-1.17-2.84-2.74,0-1.27.87-2.47,2.44-3.57h-10.47v-23.35h11.71l.23,1.03h-10.84v9.61h9.17v1.03h-9.17v10.64h11.17l-.2,1.03c-1.7,1-2.97,2.1-2.97,3.47Z"/>
      <path class="cls-3" d="M157.85,159.48v22.32h-1.1v-22.32h-7.64l.2-1.03h15.94l.23,1.03h-7.64Z"/>
      <path class="cls-3" d="M185.01,170.12c0-6.74,5.3-12.01,12.04-12.01s12.08,5.27,12.08,12.01-5.3,12.01-12.08,12.01-12.04-5.27-12.04-12.01ZM207.99,170.12c0-6.14-4.8-10.97-10.94-10.97s-10.91,4.84-10.91,10.97,4.8,10.97,10.91,10.97,10.94-4.84,10.94-10.97Z"/>
      <path class="cls-3" d="M244.76,181.8l-10.91-11.74v11.74h-1.1v-23.18l1.1-.33v11.27l10.61-11.11h1.47l-10.91,11.34,11.21,12.01h-1.47Z"/>
      <path class="cls-3" d="M279.18,181.8l-9.21-9.71v9.71h-1.1v-23.35h3.8c4.47,0,7.61,2.9,7.61,6.94s-3.14,6.91-7.57,6.91h-1.13l9.07,9.51h-1.47ZM269.98,171.32h2.7c3.84,0,6.47-2.5,6.47-5.94s-2.63-5.9-6.47-5.9h-2.7v11.84Z"/>
      <path class="cls-3" d="M304.7,180.76h16.08l-.2,1.03h-17.95l16.38-22.32h-15.58l.23-1.03h17.38l-16.34,22.32Z"/>
      <path class="cls-3" d="M351.07,172.56v9.24h-1.1v-9.17l-8.31-14.18h1.23l7.61,13.01,7.61-13.01h1.23l-8.27,14.11Z"/>
      <path class="cls-3" d="M379.43,179.53l.23-1.13c1.67,1.6,3.87,2.74,6.24,2.74,3.37,0,5.67-2.27,5.67-5.34,0-2.57-1.33-4.17-5.07-5.4l-.7-.23c-3.37-1.13-5.64-2.8-5.64-6.17s2.5-5.87,6.14-5.87c1.63,0,3.5.47,5.44,1.73l-.23,1.13c-2-1.4-3.7-1.83-5.17-1.83-3,0-5.07,2.04-5.07,4.87s1.93,4.1,4.9,5.07l.7.23c4.1,1.37,5.8,3.4,5.8,6.44,0,3.67-2.77,6.37-6.77,6.37-2.74,0-4.94-1.27-6.47-2.6Z"/>
      <path class="cls-3" d="M428.46,181.8l-10.91-11.74v11.74h-1.1v-23.18l1.1-.33v11.27l10.61-11.11h1.47l-10.91,11.34,11.21,12.01h-1.47Z"/>
      <path class="cls-3" d="M452.75,158.61l1.1-.33v23.52h-1.1v-23.18Z"/>
      <path class="cls-3" d="M490.98,180.76l-.2,1.03h-12.08v-23.35h11.71l.23,1.03h-10.84v9.61h9.17v1.03h-9.17v10.64h11.17Z"/>
    </g>
    <g>
      <path class="cls-3" d="M340.71,14.33v23.79h-3.54v-18.07l-4.46,2.58-.59-3.4,8.59-4.89Z"/>
      <path class="cls-3" d="M345.17,26.55c0-6.64,3.24-11.93,8.79-11.93s8.76,5.29,8.76,11.93-3.24,11.93-8.76,11.93-8.79-5.29-8.79-11.93ZM359.08,26.55c0-4.59-1.59-8.62-5.12-8.62s-5.15,4.03-5.15,8.62,1.59,8.62,5.15,8.62,5.12-4.03,5.12-8.62Z"/>
      <path class="cls-3" d="M366.09,26.55c0-6.64,3.24-11.93,8.79-11.93s8.76,5.29,8.76,11.93-3.24,11.93-8.76,11.93-8.79-5.29-8.79-11.93ZM380,26.55c0-4.59-1.59-8.62-5.12-8.62s-5.15,4.03-5.15,8.62,1.59,8.62,5.15,8.62,5.12-4.03,5.12-8.62Z"/>
      <path class="cls-3" d="M386.34,36.04c0-1.35,1.12-2.41,2.48-2.41s2.48,1.06,2.48,2.41-1.09,2.38-2.48,2.38-2.48-1.02-2.48-2.38Z"/>
      <path class="cls-3" d="M410,31.77c0,3.77-3.34,6.71-7.63,6.71s-7.63-2.94-7.63-6.71c0-2.41,1.42-4.43,3.57-5.52-1.95-1.12-3.21-3.01-3.21-5.25,0-3.57,3.14-6.38,7.27-6.38s7.3,2.81,7.3,6.38c0,2.25-1.26,4.16-3.24,5.25,2.15,1.09,3.57,3.11,3.57,5.52ZM406.47,31.54c0-2.15-1.78-3.87-4.1-3.87s-4.1,1.72-4.1,3.87,1.82,3.83,4.1,3.83,4.1-1.68,4.1-3.83ZM398.57,21.3c0,1.98,1.68,3.54,3.8,3.54s3.8-1.55,3.8-3.54-1.69-3.6-3.8-3.6-3.8,1.59-3.8,3.6Z"/>
      <path class="cls-3" d="M424.61,25.33h7.34v3.27h-7.34v9.52h-3.54V14.99h12.03l.56,3.27h-9.05v7.07Z"/>
      <path class="cls-3" d="M457.72,38.12l-1.29-13.65-7.86,14.08-7.86-14.01-1.29,13.58h-3.57l2.45-24.38,10.28,18.3,10.24-18.3,2.45,24.38h-3.54Z"/>
    </g>
  </g>
</svg>