<svg xmlns="http://www.w3.org/2000/svg" width="197.175" height="98.073" viewBox="0 0 197.175 98.073"><g transform="translate(-0.016 0.001)"><path d="M196.942,54.2a12.75,12.75,0,0,0-3.477-6.94c-2.533-2.5-5.027-3.8-7.627-3.982-.928-.062-1.658-.09-2.186-.09-.451,0-.817.02-1.1.048a10.765,10.765,0,0,0-4.2,1.279,12.005,12.005,0,0,0-3.359-1.979,14.637,14.637,0,0,0-5.339-1.057q-.641,0-1.27.062a5.768,5.768,0,0,0-4.558,3.087,11.787,11.787,0,0,0-1.6-.8,14.143,14.143,0,0,0-5.376-1.092c-.382,0-.762.024-1.141.057-.164-1.5-.329-3-.576-4.456a77.067,77.067,0,0,0,8.02-1.949c.164-.049.329-.107.493-.171,5.509-2.2,8.692-5.04,9.728-8.682a12.4,12.4,0,0,0-.151-8.181,11.246,11.246,0,0,0-1.9-3.1,10.05,10.05,0,0,0-7.736-3.783,10.525,10.525,0,0,0-3.028.457,5.768,5.768,0,0,0-4.079,4.934c-.1.926-.294,2.849-4.878,4.225a35.055,35.055,0,0,1-8.871,1.2q-2.111-.01-4.24-.071h-.164a5.77,5.77,0,0,0-5.279,8.1l2.163,4.9a46.13,46.13,0,0,1,1.922,9.982,18.533,18.533,0,0,0-7.47,3.427c-.105.074-.208.155-.308.237-.329.266-.576.475-.826.7-.131-.136-.265-.27-.4-.4a12.6,12.6,0,0,0-8.525-3.589,9.506,9.506,0,0,0-5.973,2.023,5.853,5.853,0,0,0,0-1.034c-.036-.378-.082-.751-.15-1.124a10.52,10.52,0,0,0-5.379-7.385,12.417,12.417,0,0,0-6.167-1.607c-.437,0-.882.022-1.344.067a15.3,15.3,0,0,0-2.474.46c-.157.043-.313.092-.466.149C92.954,39.854,89.371,43.748,87,49.7a51.792,51.792,0,0,0-1.809,5.427c-.231-.175-.457-.334-.678-.479a14.1,14.1,0,0,0-7.71-2.405,12.518,12.518,0,0,0-1.254.062,17.945,17.945,0,0,0-4.859,1.159,9.688,9.688,0,0,1,1.654-2.448,1.743,1.743,0,0,1,.364-.268,5.774,5.774,0,0,0,2.836-6.021A9.456,9.456,0,0,0,68.825,37.2a17.057,17.057,0,0,0-5.164-.885c-.411,0-.805.02-1.187.057a9.717,9.717,0,0,0-1.34.2C55.118,37.741,50,42.873,45.9,51.632q-.576,1.233-1.123,2.467a46,46,0,0,0-3.528-8.214c-.07-.125-.146-.247-.224-.368A11.637,11.637,0,0,0,32.308,40.1c-1.233-.122-2.417-.185-3.508-.185a24.924,24.924,0,0,0-2.494.118,5.769,5.769,0,0,0-4.865,7.7A43.489,43.489,0,0,1,23.38,54.9a32.442,32.442,0,0,1,.241,10.135,13.718,13.718,0,0,0-5.065-.951q-.715,0-1.449.072c-.137.014-.274.033-.411.056-4.488.77-10.576,3.446-14.087,11.817A30.61,30.61,0,0,0,.441,93.41l.121.676c1.163,5.909,4.366,8.652,6.973,9.923a14.952,14.952,0,0,0,7.5,1.809c.711,0,1.459-.037,2.238-.113,4.868-.479,11.64-3.33,16.262-14.2q.784-1.841,1.491-3.739A9.32,9.32,0,0,0,42.751,92c.306,0,.618-.015.965-.048a8.224,8.224,0,0,0,1.014-.171,10.206,10.206,0,0,0,3.3-1.316c2.373,9.843,9.374,10.927,12.329,10.927q.7,0,1.439-.072a12.7,12.7,0,0,0,5.844-1.96,12.971,12.971,0,0,0,3.487-3.309,13.585,13.585,0,0,0,1.6-2.96c.489.039.965.1,1.474.1q1.077,0,2.242-.113c3.783-.372,7.461-2.24,10.974-5.564a9.333,9.333,0,0,0,7.506,3.7q.482,0,.98-.048c.07-.007.136-.015.2-.024a13.591,13.591,0,0,0,7.929-4.1,12.735,12.735,0,0,0,7.826,2.473q.844,0,1.749-.088A16.2,16.2,0,0,0,124.858,83.1c.028.037.053.073.082.11a11.9,11.9,0,0,0,9.918,4.812h0a22.927,22.927,0,0,0,4.743-.562,5.87,5.87,0,0,0,.956-.291,20.974,20.974,0,0,0,8.141-5.8,9.968,9.968,0,0,0-1.286,6.831,11.176,11.176,0,0,0,1.457,3.823,10.745,10.745,0,0,0,9.674,5.248,14.552,14.552,0,0,0,1.554-.082c6.035-.594,13.68-3.885,17.064-15.835a66.889,66.889,0,0,0,11.318-7.426,22.9,22.9,0,0,0,8.634-14.951c.022-.155.036-.314.044-.471a18.938,18.938,0,0,0-.225-4.3" transform="translate(-0.003 -7.75)" fill="#2d7666"/><path d="M-14563.373,14.131a8.84,8.84,0,0,1-6.729-3.537,8.6,8.6,0,0,1-1.463-3.537l-.1-.563a24.793,24.793,0,0,1,1.8-14.142q3.028-7.214,9.746-8.364a8.1,8.1,0,0,1,5.3,1.254c1.54.98,2.651,2.878,3.347,5.665a67.485,67.485,0,0,0,2.1-6.484,37.024,37.024,0,0,0,.654-16.435,49.389,49.389,0,0,0-2.2-8.119,25.138,25.138,0,0,1,4.864.066,5.944,5.944,0,0,1,4.48,2.867,46.707,46.707,0,0,1,4.473,12.215q1.4,5.958,2.4,11.6c.146.827.277,1.631.4,2.421l.179,1.02a99.615,99.615,0,0,1,7.465-21.888c3.5-7.468,7.453-11.528,11.915-11.966a9.373,9.373,0,0,1,4.049.585,4.234,4.234,0,0,1,2.779,3.032q-3.813,2.019-6.854,11.378a53.777,53.777,0,0,0-2.578,19.314,25.386,25.386,0,0,0,.351,3.328l0,.011q1.283,7.307,6.839,10.507l-.252.735a7.728,7.728,0,0,1-.97,1.748,7.215,7.215,0,0,1-1.953,1.818,7,7,0,0,1-3.222,1.028q-6.144.6-7.728-7.058c-.109-.5-.209-1-.3-1.5a64.591,64.591,0,0,1-.659-15.558A116.213,116.213,0,0,1-14523.8-27.4l-2.531,6.616a77.882,77.882,0,0,0-3.949,16.351q-.927,4.081-4.045,4.689a2.2,2.2,0,0,1-.34.059q-2.562.252-4.042-2.926a9.934,9.934,0,0,1-.526-1.5q-.746-2.781-1.807-6.353-1.191-4-2.461-7.728a90.581,90.581,0,0,1-6.061,21.545q-4.251,10-11.517,10.712a15.753,15.753,0,0,1-1.651.086Q-14563.051,14.144-14563.373,14.131Zm139.431-10.961a5.514,5.514,0,0,1-.742-1.891,4.139,4.139,0,0,1,.292-2.421,5.006,5.006,0,0,1,1.134-1.569,33.157,33.157,0,0,1,8.306-5.713c.812-.483,1.639-.962,2.473-1.448a42.775,42.775,0,0,0,2.436-8.986,26.425,26.425,0,0,1-4.155,7.216,8.95,8.95,0,0,1-6.122,3.39c-3.4.333-5.164-.922-5.921-4.118a5.561,5.561,0,0,1-.135-.688c-.666-3.782-.241-8.137,1.151-13.2s2.312-8.43,3.555-11.1a8.106,8.106,0,0,1,3.925.625,5.146,5.146,0,0,1,2.845,2.644q-1,3.462-2.048,7.786a46.951,46.951,0,0,0-1.262,7.57,7.592,7.592,0,0,0,.052,1.774c.172.966.621,1.415,1.35,1.342q1.069-.1,2.918-3.58a45.759,45.759,0,0,0,3.357-8.668,43.894,43.894,0,0,0,1.7-10.756,8.481,8.481,0,0,1,3.938.622,5.752,5.752,0,0,1,3.058,2.626c-.037.457-.069.925-.1,1.4a164.014,164.014,0,0,1-2.176,19.453,22.035,22.035,0,0,0,6.056-6.576,18.189,18.189,0,0,0,2.55-8.152,10.878,10.878,0,0,0-.129-2.556,6.429,6.429,0,0,0-1.981-3.767A4.421,4.421,0,0,1-14394.7-37a7.123,7.123,0,0,1,2.362.128,7.842,7.842,0,0,1,3.961,2.33,7.006,7.006,0,0,1,1.847,3.833v0a13.228,13.228,0,0,1,.15,2.992,17.221,17.221,0,0,1-6.564,11.264,61.689,61.689,0,0,1-12.64,7.929q-2.682,13.078-12.657,14.058-.516.051-.991.051A5.035,5.035,0,0,1-14423.942,3.171Zm-88.5-8.024a22.367,22.367,0,0,1-.585-2.487,23.814,23.814,0,0,1,1.656-12.9q2.7-6.934,9.688-7.622a8.132,8.132,0,0,1,5.27,1.452,7.144,7.144,0,0,1,3,5.032c.048.271.084.538.113.808a13.762,13.762,0,0,1-2.549,8.847,10.077,10.077,0,0,1-7.109,4.6,3.29,3.29,0,0,0,1.145,1.43,3.188,3.188,0,0,0,1.975.611,4.758,4.758,0,0,0,.757-.018q5.651-.565,10.412-12.8c.029-.819.073-1.657.132-2.523a45.352,45.352,0,0,1,3.112-13.645q2.612-6.567,7.267-8.284a9.071,9.071,0,0,1,1.532-.289,6.8,6.8,0,0,1,4.1.823,4.708,4.708,0,0,1,2.531,3.357c.033.216.062.432.08.647a12.5,12.5,0,0,0-6.784,6.108,35.974,35.974,0,0,0-3.811,10.255,41.093,41.093,0,0,0-1.035,9.684,16.587,16.587,0,0,0,.209,2q.368,2.1,1.346,2,1.619-.165,3.689-4.03a62.845,62.845,0,0,0,3.529-7.812,29.133,29.133,0,0,1,1.3-3.818q3.028-7.214,9.742-8.368a1.406,1.406,0,0,1,.446-.007,1.966,1.966,0,0,1,.381-.651c1.649-1.748,5.021-1.5,7.256.889a10.177,10.177,0,0,1,1.8,2.458,14.5,14.5,0,0,1,.691,1.624,10.716,10.716,0,0,0,.409,1.2c.354.731.823,1.039,1.4.911.438-.091.6-.2.731-.461a16.039,16.039,0,0,1,3.427-5.318,4.252,4.252,0,0,1,.318-.34,9.45,9.45,0,0,1,5.464-2.586,8.123,8.123,0,0,1,4.5.808,48.5,48.5,0,0,0-1.77-16.746,21.832,21.832,0,0,0-1.075-3l-1.727-3.91q2.2.06,4.378.073a40.88,40.88,0,0,0,10.559-1.441q8.266-2.48,8.956-9.158a4.193,4.193,0,0,1,4.751,1.393,5.963,5.963,0,0,1,.907,1.675,6.819,6.819,0,0,1-.056,4.433c-.486,1.719-2.143,3.452-5.888,4.725-.293.1-.581.223-.878.311h.008a69.479,69.479,0,0,1-12.845,2.5,80.343,80.343,0,0,1,1.727,28.647q-1.383,13.221-8.624,18.125a11.338,11.338,0,0,1-5.288,1.92,6.82,6.82,0,0,1-6.25-2.2,6.894,6.894,0,0,1-.5-.625c-.164-.223-.365-.5-.436-.607a11.479,11.479,0,0,1-1.375-3.935l-.1-.563a23.756,23.756,0,0,1,.549-10.522c-.2.062-.358.168-.563.219a3.625,3.625,0,0,1-2.322-.238,23.237,23.237,0,0,1-2.45,12.233q-3.543,7.137-9.542,7.728-7,.691-8.419-6.5l-.1-.563c-.04-.216-.059-.435-.091-.655a28.529,28.529,0,0,1-3.687,6.1,8.346,8.346,0,0,1-5.405,3.361q-3.665.362-5.189-5.475-.3-1.174-.52-2.439c-.128-.713-.227-1.47-.312-2.253a28.4,28.4,0,0,1-4.132,6.257q-4.73,5.371-9.312,5.822-.876.086-1.683.086Q-14510.53,1.52-14512.439-4.853Zm51.614-19.244a10.165,10.165,0,0,0-2.2,3.672,17.771,17.771,0,0,0-1.247,7.724c.029.289.069.56.113.808q.445,2.523,2.118,2.359,1.415-.137,2.684-2.161a18.268,18.268,0,0,0,2.026-4.641,20.7,20.7,0,0,0,.874-4.787l0,0a8.867,8.867,0,0,0-.329-2.476,7.176,7.176,0,0,1-2.63-1.488A5.139,5.139,0,0,0-14460.825-24.1Zm-38.284,2.469a4,4,0,0,0-2.216,1.5,10.167,10.167,0,0,0-2.056,4.085,6.09,6.09,0,0,0-.109,2.169,1.816,1.816,0,0,0,.68,1.218,1.084,1.084,0,0,0,.71.176,4.093,4.093,0,0,0,2.286-1.675,7.932,7.932,0,0,0,1.371-2.783,9.548,9.548,0,0,0,.436-3.1c-.019-.2-.041-.377-.066-.541-.109-.607-.365-.955-.771-1.042a1.063,1.063,0,0,0-.132-.008A1.063,1.063,0,0,0-14499.109-21.629Z" transform="translate(14574.65 75.148)" fill="#ebe5ca"/><path d="M-14536.491-55.895a5.372,5.372,0,0,1-1.247-3.825,5.312,5.312,0,0,1,1.243-3.792,5.628,5.628,0,0,1,7.209-.011,5.405,5.405,0,0,1,1.229,3.818,5.388,5.388,0,0,1-1.236,3.818,5.581,5.581,0,0,1-3.593,1.306A5.592,5.592,0,0,1-14536.491-55.895Zm3.606-6.722q-2.02,0-2.02,2.911,0,2.885,2,2.885a1.729,1.729,0,0,0,1.514-.7,3.808,3.808,0,0,0,.494-2.183,3.863,3.863,0,0,0-.5-2.2,1.705,1.705,0,0,0-1.389-.713C-14532.813-62.62-14532.85-62.619-14532.885-62.617Zm-16.348,7.9h-3.218v-9.951h3.441a5.188,5.188,0,0,1,3.7,1.225,4.618,4.618,0,0,1,1.3,3.536v0a5.123,5.123,0,0,1-1.371,3.836,5.255,5.255,0,0,1-3.528,1.36C-14549.015-54.707-14549.123-54.711-14549.232-54.717Zm-.53-2.209h.6a2.168,2.168,0,0,0,1.8-.709,3.421,3.421,0,0,0,.574-2.176h0a3.173,3.173,0,0,0-.537-2.03,2.006,2.006,0,0,0-1.646-.655h-.782Zm-6.7,2.209-.493-1.865h-3.233l-.5,1.865h-2.951v0h-2.876l-2.11-3.617h-.68v3.617H-14572v-9.947h3.258q4.059,0,4.056,2.94a2.931,2.931,0,0,1-1.686,2.673l2.785,4.162,3.19-9.816h3.588l3.287,9.991Zm-2.365-7.208q-.182.8-.8,3.138h2.118l-.428-1.635c-.1-.362-.224-.83-.366-1.408s-.234-.987-.281-1.236Q-14558.647-62.721-14558.828-61.926Zm-10.481,1.565h.5q1.409,0,1.408-1.247c0-.684-.458-1.028-1.379-1.028h-.53Zm27.088,5.639v-9.947h2.7v9.947Zm-17.8-10.741v-.2q1.047-1.125,1.327-1.452c.187-.216.344-.41.472-.585h2.911v.143c-.361.293-.862.662-1.5,1.112s-1.115.775-1.445.98Z" transform="translate(14648.804 67.695)" fill="#2d7666"/></g></svg>